<svg width="30" height="30" viewBox="0 0 30 30" fill="none" xmlns="http://www.w3.org/2000/svg">
<path d="M27.9967 25.556C27.9337 25.7665 27.8179 25.9574 27.6602 26.1104C27.5026 26.2634 27.3084 26.3735 27.0961 26.4302C26.9813 26.4555 26.8641 26.4676 26.7465 26.4665H3.23733C3.07618 26.4766 2.91469 26.4531 2.76312 26.3974C2.61154 26.3418 2.4732 26.2552 2.35687 26.1432C2.24054 26.0312 2.14878 25.8963 2.08741 25.7469C2.02604 25.5976 1.99638 25.4371 2.00035 25.2757C2.00035 22.032 2.00035 18.7905 2.00035 15.5513C2.00035 15.5084 2.00035 15.4688 2.00035 15.3896L3.3198 15.6865C6.41389 16.3891 9.50799 17.095 12.6054 17.7845C12.8726 17.8438 12.9583 17.9395 12.9352 18.2133C12.9089 18.7279 12.9352 19.2457 12.9352 19.7636C12.9352 20.2815 13.1397 20.5322 13.6939 20.5322H16.3328C16.8375 20.5322 17.0552 20.3178 17.0618 19.8098C17.0684 19.3018 17.0618 18.7081 17.0618 18.1605C17.0618 17.9527 17.1047 17.857 17.3323 17.8075C20.732 17.0467 24.1307 16.277 27.5283 15.4985L28 15.3962L27.9967 25.556Z" stroke="currentColor"/>
<path d="M27.9969 13.8757C27.0832 14.0868 26.1728 14.3045 25.2623 14.5123L17.1775 16.3397C17.1346 16.3426 17.0916 16.3426 17.0488 16.3397C17.0488 16.0099 17.0488 15.7064 17.0488 15.3963C17.0488 14.8422 16.8344 14.6278 16.2868 14.6245H13.671C13.14 14.6245 12.9222 14.8455 12.9189 15.3831C12.9189 15.6932 12.9189 16.0066 12.9189 16.3562L2.00386 13.8823V11.6326C2.00386 11.0718 2.00386 10.5144 2.00386 9.95689C1.9975 9.79789 2.02379 9.63927 2.08113 9.49083C2.13847 9.34239 2.22563 9.20728 2.33722 9.09384C2.44881 8.98039 2.58247 8.89102 2.72994 8.83125C2.87741 8.77147 3.03557 8.74256 3.19465 8.74629C3.44205 8.74629 3.68614 8.74629 3.93023 8.74629C11.4445 8.74629 18.9587 8.74629 26.4729 8.74629C27.2085 8.74629 27.7396 8.9574 28.0002 9.67321L27.9969 13.8757Z" stroke="currentColor"/>
<path d="M11.9854 3.5H18.0166L18.251 3.51562C18.7957 3.5771 19.3074 3.81838 19.7021 4.20508C20.1494 4.64336 20.4131 5.23513 20.4404 5.86035V7.04199H20.0703C20.0765 6.73836 20.0801 6.41605 20.0605 6.11133C20.036 5.71761 19.9402 5.33154 19.7764 4.97266L19.7744 4.9707L19.7158 4.85449C19.5688 4.58852 19.3573 4.36299 19.0996 4.19922C18.806 4.01258 18.4651 3.9138 18.1172 3.91504L15.0742 3.90234C14.0563 3.89823 13.0361 3.89851 12.0195 3.91504C11.4136 3.91708 10.8885 4.14135 10.5156 4.5498C10.1924 4.90394 10.0099 5.36657 9.96289 5.87305L9.95117 6.09277V7.0459H9.55859C9.55374 6.52274 9.57537 5.9996 9.62402 5.47852C9.72299 4.92693 10.0117 4.42682 10.4404 4.06543C10.8188 3.74658 11.285 3.55359 11.7744 3.50977L11.9854 3.5Z" stroke="currentColor"/>
</svg>
