<svg width="30" height="30" viewBox="0 0 30 30" fill="none" xmlns="http://www.w3.org/2000/svg">
<path d="M20.9199 3.48462C21.5206 3.48264 22.104 3.68656 22.5713 4.0647C22.9851 4.39961 23.2847 4.85218 23.4336 5.35962L23.4883 5.58032L23.4902 5.59106C23.5707 6.04233 23.5451 6.50544 23.418 6.94556L23.4189 6.94653C23.2538 7.59556 22.9386 8.1963 22.5 8.70239C22.2572 8.98998 21.9525 9.21887 21.6074 9.36938L21.6006 9.37231C21.3178 9.49067 21.0084 9.53325 20.7041 9.49634C20.4025 9.45968 20.116 9.34511 19.8711 9.16528V9.16626C19.4406 8.85838 19.0894 8.45246 18.8477 7.98169V7.98071C18.6138 7.55339 18.4513 7.09048 18.3672 6.6106L18.3682 6.60962C18.2422 5.98326 18.348 5.33205 18.668 4.77856C18.9907 4.22051 19.5077 3.8003 20.1201 3.59888V3.59985C20.3711 3.5167 20.6343 3.47826 20.8984 3.48462V3.48364C20.9059 3.48356 20.9134 3.48366 20.9209 3.48364L20.9199 3.48462Z" stroke="currentColor" stroke-linecap="round" stroke-linejoin="round"/>
<path d="M19.3896 8.17249C19.5991 8.17509 19.7891 8.30951 19.8574 8.51428C19.9032 8.65173 19.978 8.77752 20.0762 8.88245L20.1816 8.9801L20.21 9.00452C20.3742 9.15737 20.545 9.30543 20.7197 9.45569C20.8282 9.43303 20.9398 9.42637 21.0508 9.43909C21.085 9.44302 21.1188 9.4494 21.1523 9.45667C21.3007 9.32889 21.4411 9.20776 21.5693 9.08167C21.6839 8.9686 21.7916 8.84875 21.8926 8.72327C21.9507 8.64021 22.0033 8.55348 22.0498 8.4635C22.1445 8.28018 22.3427 8.17403 22.5479 8.19592C23.2085 8.26651 23.8278 8.55185 24.3105 9.00842C24.7928 9.46461 25.1113 10.0663 25.2188 10.7213C25.2767 11.0381 25.2765 11.3625 25.2188 11.6793L25.2197 11.6803C25.1565 12.0633 24.9449 12.4061 24.6309 12.6344C24.6267 12.6374 24.6224 12.6403 24.6182 12.6432C24.4716 12.743 24.31 12.8196 24.1396 12.8688L24.1387 12.8678C23.7967 12.9694 23.4417 13.0186 23.085 13.0143V13.0153H18.7559V13.0143C18.3823 13.0176 18.0106 12.965 17.6533 12.8561C17.6482 12.8545 17.6428 12.8529 17.6377 12.8512C17.4812 12.7979 17.3334 12.7207 17.2002 12.6227L17.1924 12.6168C17.0292 12.4917 16.8931 12.3345 16.793 12.1549C16.6952 11.9795 16.6354 11.7861 16.6133 11.5865L16.6113 11.5875C16.5132 10.8408 16.6973 10.084 17.127 9.46545C17.5566 8.84695 18.2015 8.41043 18.9355 8.24182L18.9639 8.23694L19.2998 8.17932L19.3896 8.17249Z" stroke="currentColor" stroke-linecap="round" stroke-linejoin="round"/>
<path d="M23.0938 12.0155C23.3698 12.0157 23.5938 12.2395 23.5938 12.5155C23.5938 12.7915 23.3698 13.0153 23.0938 13.0155H22.7812C22.5051 13.0155 22.2812 12.7916 22.2812 12.5155C22.2812 12.2394 22.5051 12.0155 22.7812 12.0155H23.0938Z" stroke="currentColor" stroke-linecap="round" stroke-linejoin="round"/>
<path d="M14.9922 11.2748C15.0233 11.4325 15.0988 11.841 15.1221 12.3041C15.1356 12.5745 15.1325 12.878 15.0879 13.1693C15.0442 13.4544 14.9545 13.77 14.7637 14.0297L14.7607 14.0345C14.643 14.1907 14.4994 14.3264 14.3369 14.4349C14.333 14.4375 14.3292 14.4403 14.3252 14.4427C14.1074 14.5794 13.8604 14.6636 13.6045 14.6879C13.3485 14.7121 13.0902 14.6757 12.8506 14.5824C12.834 14.5759 12.8176 14.5681 12.8018 14.5599C12.6934 14.5037 12.5929 14.4352 12.501 14.3568C12.5072 16.9974 12.5117 19.6381 12.5117 22.2787V26.6058C12.5353 26.975 12.4454 27.3431 12.251 27.6586C12.0487 27.9867 11.7451 28.2402 11.3867 28.3822L11.3818 28.3842C11.1156 28.4865 10.828 28.5219 10.5449 28.4867C10.2618 28.4514 9.99189 28.3466 9.75879 28.182C9.5506 28.035 9.37968 27.8432 9.25391 27.6224C9.21804 27.685 9.17937 27.7462 9.13574 27.8041C8.97867 28.0123 8.77608 28.1821 8.54395 28.3011C8.31179 28.4201 8.05568 28.4856 7.79492 28.4916C7.5347 28.4975 7.27695 28.4432 7.04004 28.3353V28.3363C6.7052 28.1855 6.42599 27.9339 6.24121 27.6166C6.06415 27.3124 5.98322 26.9622 6.00684 26.6117V18.1898C5.74423 18.3931 5.42189 18.5047 5.08789 18.5052L5.08887 18.5062C5.08627 18.5063 5.08365 18.5052 5.08105 18.5052L5.07812 18.5062V18.5052C4.73202 18.5085 4.39402 18.3989 4.11719 18.1908C3.83761 17.9806 3.63572 17.6826 3.54395 17.3451C3.53257 17.3031 3.52751 17.2597 3.52734 17.2162L3.5 9.65466C3.49993 9.63524 3.50074 9.61537 3.50293 9.59607C3.51264 9.51064 3.53066 9.40964 3.53906 9.35388C3.54933 9.2857 3.55371 9.23973 3.55371 9.20251C3.55372 9.19082 3.55386 9.17902 3.55469 9.16736C3.59562 8.58828 3.81307 8.03582 4.17676 7.58337C4.54044 7.13096 5.03315 6.79959 5.58984 6.63513L5.64746 6.62244C6.19429 6.5292 6.74806 6.4786 7.30273 6.47107V6.47205C7.42318 6.46323 7.54346 6.47927 7.6543 6.52576L7.78613 6.59705L7.90137 6.69177C7.98795 6.77892 8.0483 6.8874 8.08496 7.00525H8.08691C8.0988 7.03742 8.11116 7.06979 8.12305 7.10193C8.1285 6.99494 8.16198 6.88271 8.24121 6.77283C8.42167 6.52261 8.7123 6.48083 8.87695 6.48083H9.54785C9.66078 6.48083 9.78742 6.48572 9.90234 6.51013C10.0016 6.53123 10.218 6.59167 10.3477 6.80701C10.4008 6.89542 10.4231 6.98445 10.4297 7.0658C10.4369 7.04822 10.444 7.03062 10.4512 7.01306L10.458 6.99744C10.5051 6.89267 10.5855 6.7362 10.7441 6.62048C10.9134 6.49698 11.0991 6.47107 11.25 6.47107H12.1768C12.8543 6.49432 13.5022 6.75555 14.0059 7.20935C14.4467 7.60658 14.7527 8.12917 14.8848 8.70349L14.9307 8.95251L14.9316 8.96228C15.0122 9.63847 14.9769 10.3754 14.9922 10.9691V11.2748Z" stroke="currentColor" stroke-linecap="round" stroke-linejoin="round"/>
<path d="M9.27441 1.5C9.79787 1.49754 10.3108 1.65114 10.7471 1.94043C11.1831 2.2297 11.5232 2.64204 11.7246 3.125C11.926 3.60808 11.9794 4.13994 11.8779 4.65332C11.7764 5.16685 11.5244 5.63865 11.1543 6.00879C10.7842 6.37893 10.3124 6.6309 9.79883 6.73242C9.28541 6.83387 8.75356 6.7805 8.27051 6.5791C7.78735 6.37764 7.37522 6.03684 7.08594 5.60059C6.79671 5.16436 6.64305 4.65232 6.64551 4.12891C6.64879 3.43273 6.92661 2.76576 7.41895 2.27344C7.91126 1.78114 8.5782 1.50327 9.27441 1.5Z" stroke="currentColor" stroke-linecap="round" stroke-linejoin="round"/>
<mask id="path-6-outside-1_294_2915" maskUnits="userSpaceOnUse" x="13.5234" y="12.1429" width="15" height="4" fill="black">
<rect fill="currentColor" x="13.5234" y="12.1429" width="15" height="4"/>
<path d="M14.5234 14.3228L26.9046 14.3228V13.1429H15.1425"/>
</mask>
<path d="M14.5234 13.3228C13.9712 13.3228 13.5234 13.7705 13.5234 14.3228C13.5234 14.8751 13.9712 15.3228 14.5234 15.3228L14.5234 14.3228L14.5234 13.3228ZM26.9046 14.3228L26.9046 15.3228C27.1698 15.3228 27.4242 15.2174 27.6117 15.0299C27.7993 14.8423 27.9046 14.588 27.9046 14.3228H26.9046ZM26.9046 13.1429H27.9046C27.9046 12.5907 27.4569 12.1429 26.9046 12.1429V13.1429ZM15.1425 12.1429C14.5902 12.1429 14.1425 12.5907 14.1425 13.1429C14.1425 13.6952 14.5902 14.1429 15.1425 14.1429V13.1429V12.1429ZM14.5234 14.3228L14.5234 15.3228L26.9046 15.3228L26.9046 14.3228L26.9046 13.3228L14.5234 13.3228L14.5234 14.3228ZM26.9046 14.3228H27.9046V13.1429H26.9046H25.9046V14.3228H26.9046ZM26.9046 13.1429V12.1429H15.1425V13.1429V14.1429H26.9046V13.1429Z" fill="currentColor" mask="url(#path-6-outside-1_294_2915)"/>
</svg>
