<svg width="30" height="30" viewBox="0 0 30 30" fill="none" xmlns="http://www.w3.org/2000/svg">
<path d="M18.6533 6.63234C18.6533 4.91864 17.72 2 15.0533 2C12.3867 2 11.4533 4.22245 11.4533 6.63234C11.4533 9.04222 12.76 10.9166 15.0533 11.2647M17.72 17.9856C17.6933 17.6375 17.56 16.8556 17.24 16.5129C16.84 16.0844 16.0667 15.9238 15.0533 15.9238M15.0533 15.9238C14.04 15.9238 12.44 16.138 12.44 17.8517C12.44 19.2441 13.48 19.6725 14.8667 19.6725C16.2533 19.6725 17.6133 20.0474 17.6133 21.5469C17.6133 23.0463 16.36 23.3409 15.0533 23.3409M15.0533 15.9238V14.3708M15.0533 23.3409C13.7467 23.3409 12.44 23.0463 12.44 21.3594M15.0533 23.3409V24.7333M15.0533 7.94439C13.4 9.14041 9.85867 11.7092 8.92 12.4161C7.74667 13.2997 7 14.1565 7 16.0041C7 17.8517 7 22.5376 7 24.4655C7 26.3934 7.98667 28 10.6533 28C13.32 28 17.24 28 19.2667 28C21.2933 28 23 27.036 23 24.3852C23 21.7343 23 16.8342 23 15.6828C23 14.5314 22.7067 13.6746 21.08 12.4161C19.7787 11.4093 16.52 9.01545 15.0533 7.94439Z" stroke="currentColor" stroke-linecap="round" stroke-linejoin="round"/>
</svg>
