<svg width="30" height="30" viewBox="0 0 30 30" fill="none" xmlns="http://www.w3.org/2000/svg">
<path d="M12.3311 4.74837C13.433 2.91611 13.984 1.99999 14.7987 2C15.6133 2.00001 16.1642 2.91616 17.2661 4.74845L17.4674 5.0834C18.2575 6.39707 18.6524 7.05389 19.2816 7.42433C19.3112 7.44175 19.3411 7.45864 19.3713 7.47499C20.0134 7.82271 20.7811 7.82271 22.3167 7.82271H22.6683C24.6837 7.82271 25.6915 7.82271 26.1234 8.38174C26.2272 8.51603 26.3063 8.66761 26.3571 8.82943C26.5683 9.50308 25.9905 10.3267 24.8347 11.974C23.9017 13.304 23.4351 13.969 23.3607 14.7163C23.3419 14.905 23.3419 15.095 23.3607 15.2837C23.4351 16.031 23.9017 16.696 24.8347 18.026C25.9905 19.6732 26.5683 20.4969 26.3571 21.1706C26.3063 21.3324 26.2272 21.484 26.1234 21.6183C25.6915 22.1773 24.6837 22.1773 22.6683 22.1773H22.3167C20.7811 22.1773 20.0134 22.1773 19.3713 22.525C19.3411 22.5413 19.3112 22.5582 19.2816 22.5756C18.6524 22.9461 18.2575 23.6029 17.4674 24.9165L17.2661 25.2515C16.1642 27.0839 15.6133 28 14.7987 28C13.984 28 13.433 27.0839 12.3311 25.2517L12.1588 24.9649C11.3399 23.6033 10.9304 22.9226 10.2708 22.5499C9.61111 22.1773 8.81536 22.1773 7.22386 22.1773H6.84504C4.67267 22.1773 3.5865 22.1773 3.16521 21.4936C3.14707 21.4642 3.13 21.4342 3.11404 21.4035C2.74328 20.6914 3.30211 19.7622 4.41978 17.9037C5.25531 16.5142 5.67306 15.8196 5.68726 15.053C5.68792 15.0177 5.68792 14.9823 5.68726 14.947C5.67306 14.1803 5.25531 13.4858 4.41978 12.0964C3.30211 10.2379 2.74328 9.30859 3.11404 8.59646C3.13 8.56581 3.14707 8.53574 3.16521 8.5063C3.5865 7.82271 4.67267 7.82271 6.84504 7.82271H7.22386C8.81536 7.82271 9.61111 7.82271 10.2708 7.45008C10.9304 7.07745 11.3399 6.39667 12.1588 5.03511L12.3311 4.74837Z" stroke="currentColor" stroke-linejoin="round"/>
<path d="M18.5998 15C18.5998 17.1539 16.8538 18.9 14.6998 18.9C12.5458 18.9 10.7998 17.1539 10.7998 15C10.7998 12.846 12.5458 11.1 14.6998 11.1C16.8538 11.1 18.5998 12.846 18.5998 15Z" stroke="currentColor"/>
</svg>
