<svg width="60" height="60" viewBox="0 0 60 60" fill="none" xmlns="http://www.w3.org/2000/svg">
<path d="M29.8051 30.4097C31.353 30.4097 32.9009 30.4097 34.4487 30.4097C36.0827 30.4019 37.6532 31.0418 38.8164 32.1893C39.9796 33.3369 40.6407 34.8986 40.655 36.5325C40.7041 39.4268 40.655 42.326 40.655 45.2252C40.6713 45.3866 40.6313 45.5487 40.5417 45.6839C40.4522 45.8192 40.3186 45.9193 40.1636 45.9672C36.2766 47.7562 31.9875 48.4917 27.7265 48.0999C24.8793 47.896 22.0924 47.1785 19.5007 45.982C19.3179 45.9193 19.1621 45.7958 19.0593 45.6322C18.9564 45.4685 18.9128 45.2746 18.9356 45.0827C18.9356 42.2916 18.9356 39.5054 18.9356 36.729C18.9208 35.8922 19.0753 35.061 19.3898 34.2853C19.7043 33.5097 20.1723 32.8056 20.7658 32.2154C21.3592 31.6252 22.0658 31.161 22.8431 30.8507C23.6205 30.5404 24.4525 30.3904 25.2893 30.4097H29.8051Z" fill="#21459C"/>
<path d="M24.36 28.8569C22.7069 29.0471 21.1576 29.7598 19.9375 30.8913C19.1651 31.5883 18.5474 32.4396 18.1242 33.3901C17.701 34.3405 17.4818 35.3692 17.4806 36.4096C17.4806 38.0459 17.4806 39.6823 17.4806 41.3235C17.4806 41.7166 17.4167 41.9181 16.9499 41.9476C13.0596 42.2616 9.15631 41.5251 5.64794 39.815C5.44628 39.7545 5.27187 39.6259 5.15447 39.4511C5.03707 39.2764 4.98397 39.0663 5.00422 38.8567C5.0337 36.6013 5.00422 34.3458 5.00422 32.0903C4.98311 31.2472 5.13418 30.4087 5.44818 29.626C5.76219 28.8434 6.23253 28.1329 6.83045 27.5382C7.42838 26.9435 8.14132 26.477 8.92568 26.1672C9.71004 25.8575 10.5493 25.7109 11.3923 25.7366C14.0015 25.7366 16.6108 25.6923 19.2152 25.7366C21.4363 25.8005 23.0824 26.911 24.36 28.8569Z" fill="#21459C"/>
<path d="M35.2949 28.852C35.7114 28.1093 36.2799 27.4628 36.9632 26.9548C37.6465 26.4468 38.4293 26.0886 39.2604 25.9036C39.7331 25.7988 40.2161 25.7477 40.7002 25.7513C43.2456 25.7513 45.7893 25.7513 48.3315 25.7513C49.1461 25.7403 49.9549 25.8904 50.7114 26.193C51.4679 26.4957 52.157 26.9449 52.7393 27.5148C53.3215 28.0847 53.7853 28.7641 54.1041 29.5139C54.4229 30.2637 54.5903 31.0692 54.5967 31.8839C54.6458 34.272 54.5967 36.6602 54.5967 39.0484C54.6078 39.1981 54.5696 39.3473 54.488 39.4733C54.4063 39.5993 54.2858 39.6951 54.1446 39.7462C50.5876 41.5251 46.6089 42.2886 42.6461 41.9525C42.2088 41.9525 42.1547 41.7215 42.1547 41.3579C42.1547 39.9231 42.0957 38.4833 42.1547 37.0484C42.2548 35.0691 41.6037 33.1251 40.3318 31.6053C39.0598 30.0855 37.2609 29.1021 35.2949 28.852Z" fill="#21459C"/>
<path d="M36.7717 21.8693C36.7658 23.2485 36.3508 24.5949 35.5792 25.738C34.8076 26.8811 33.7141 27.7695 32.4372 28.2908C31.1604 28.812 29.7576 28.9426 28.4064 28.666C27.0553 28.3894 25.8166 27.7181 24.8473 26.737C23.878 25.756 23.2216 24.5093 22.9612 23.155C22.7009 21.8006 22.8483 20.3994 23.3848 19.1289C23.9214 17.8584 24.8228 16.7757 25.9751 16.0179C27.1274 15.26 28.4787 14.8612 29.8578 14.8719C30.7719 14.8751 31.6763 15.0589 32.5192 15.4127C33.362 15.7665 34.1266 16.2834 34.7691 16.9337C35.4115 17.5839 35.9192 18.3546 36.2629 19.2017C36.6065 20.0487 36.7794 20.9553 36.7717 21.8693Z" fill="#21459C"/>
<path d="M8.52163 17.5697C8.5246 16.2657 8.91466 14.992 9.64237 13.9099C10.3701 12.8279 11.4027 11.9863 12.6093 11.4918C13.8159 10.9973 15.1421 10.8722 16.4199 11.1324C17.6976 11.3925 18.8694 12.0262 19.7866 12.9531C20.7038 13.8799 21.3251 15.0583 21.5719 16.3387C21.8186 17.6191 21.6796 18.944 21.1725 20.1453C20.6654 21.3467 19.8131 22.3704 18.7235 23.0868C17.6339 23.8031 16.3561 24.1798 15.0522 24.1691C14.1897 24.1659 13.3363 23.9925 12.541 23.6588C11.7456 23.3252 11.0239 22.8379 10.4172 22.2248C9.81054 21.6118 9.33081 20.885 9.00553 20.0862C8.68025 19.2873 8.51581 18.4322 8.52163 17.5697Z" fill="#21459C"/>
<path d="M51.091 17.5696C51.0968 18.8704 50.7171 20.1438 49.9999 21.2291C49.2828 22.3144 48.2602 23.1629 47.0613 23.6676C45.8623 24.1723 44.5408 24.3106 43.2633 24.065C41.9859 23.8194 40.8098 23.201 39.8835 22.2877C38.9572 21.3743 38.3222 20.2071 38.0585 18.9333C37.7949 17.6594 37.9145 16.336 38.4022 15.1301C38.8899 13.9241 39.7239 12.8897 40.7989 12.1572C41.8739 11.4247 43.1418 11.0271 44.4425 11.0144C45.3117 11.0001 46.1751 11.1591 46.9821 11.4823C47.7891 11.8055 48.5236 12.2863 49.1426 12.8966C49.7616 13.507 50.2528 14.2346 50.5873 15.0369C50.9219 15.8393 51.0931 16.7003 51.091 17.5696Z" fill="#21459C"/>
</svg>
