<svg width="60" height="60" viewBox="0 0 60 60" fill="none" xmlns="http://www.w3.org/2000/svg">
<path d="M30.0459 2.0008C32.6303 1.97634 35.1423 2.85386 37.1493 4.48222C39.1563 6.11058 40.5326 8.38784 41.0412 10.9218C41.405 12.9213 41.2945 14.9784 40.7188 16.9275C39.9458 19.9525 38.4772 22.7553 36.43 25.1127C35.4147 26.3223 34.1341 27.2815 32.6879 27.9158C31.6217 28.3639 30.4571 28.5258 29.3091 28.3857C28.1612 28.2456 27.0697 27.8083 26.1426 27.1169C24.2146 25.7443 22.6431 23.9301 21.5595 21.826C20.4447 19.8319 19.6657 17.6679 19.2539 15.4208C18.7057 12.7353 19.1603 9.94193 20.5315 7.56868C21.9028 5.19542 24.0958 3.40666 26.6962 2.54041C27.7733 2.16888 28.9066 1.98632 30.0459 2.0008Z" fill="#21459C"/>
<path d="M22.0151 26.6685C22.4286 28.2242 23.4938 29.2894 24.566 30.3125C25.8624 31.5459 27.2359 32.6952 28.5814 33.8795L28.7707 34.0337C25.6732 36.059 22.793 38.3786 19.7796 40.516C19.0436 40.962 18.4767 41.6398 18.1679 42.4431C17.9323 43.1662 17.9915 43.953 18.3326 44.6327C18.6738 45.3124 19.2693 45.83 19.9899 46.0732C20.4944 46.2554 20.4944 46.2554 20.4173 46.8721C19.8777 46.8721 19.3312 46.8721 18.7845 46.8721C17.0749 46.8877 15.3729 46.6395 13.7389 46.1362C12.7579 45.8307 11.8899 45.2405 11.2448 44.4408C10.5998 43.641 10.2069 42.6677 10.1159 41.6442C9.67984 38.3656 10.4835 35.0424 12.3696 32.3254C14.2556 29.6084 17.0881 27.6935 20.3122 26.9558C20.8658 26.8366 21.4265 26.7736 22.0151 26.6685Z" fill="#21459C"/>
<path d="M31.5391 34.1038C32.8215 32.9615 34.1249 31.8402 35.3793 30.6629C36.0828 30.0017 36.7341 29.2871 37.3275 28.5255C37.7238 27.9432 38.0797 27.3345 38.3927 26.7035C40.6694 26.9233 42.8464 27.7457 44.6997 29.0862C46.1491 30.0978 47.3786 31.3923 48.3144 32.8917C49.2502 34.3912 49.8728 36.0645 50.1448 37.8109C50.4074 39.2002 50.4074 40.6264 50.1448 42.0156C49.9827 42.9946 49.5424 43.9063 48.8763 44.6419C48.2103 45.3775 47.3467 45.906 46.3886 46.1643C44.2893 46.7328 42.1139 46.9693 39.9414 46.8651C39.8012 46.2764 39.8083 46.2554 40.3128 46.0732C40.818 45.9086 41.2683 45.6086 41.6147 45.2057C41.961 44.8027 42.19 44.3124 42.2768 43.7883C42.3635 43.2641 42.3046 42.7262 42.1066 42.2332C41.9086 41.7402 41.579 41.311 41.1537 40.9925C39.8643 39.9413 38.4838 38.9952 37.1453 38.0071C35.6596 36.9139 34.174 35.8207 32.6813 34.7415C32.3122 34.5088 31.9309 34.2959 31.5391 34.1038Z" fill="#21459C"/>
<path d="M30.1382 43.5712H21.5326C21.4652 43.5819 21.3967 43.5819 21.3294 43.5712C21.1402 43.5292 20.9509 43.4661 20.7617 43.4101C20.8547 43.2269 20.9752 43.0591 21.1191 42.9125C23.6279 41.0437 26.1461 39.1937 28.6735 37.3623C28.971 37.1161 29.2954 36.9045 29.6406 36.7316C29.8712 36.638 30.1226 36.6075 30.369 36.6432C30.6153 36.6789 30.8477 36.7795 31.0422 36.9348C33.7752 38.9391 36.5082 40.9363 39.2343 42.9545C39.3575 43.0863 39.4614 43.235 39.5426 43.396C39.3829 43.4822 39.2101 43.5414 39.0311 43.5712H30.1382Z" fill="#21459C"/>
<path d="M34.2051 48.7922V45.3653C34.2051 44.8047 34.3802 44.6646 34.9479 44.6646H36.4756C36.9661 44.6646 37.1413 44.8468 37.1764 45.3653C37.2114 45.8839 37.1764 46.2974 37.1764 46.7669C37.1764 48.5749 37.1764 50.3759 37.1764 52.177C37.1764 52.8777 37.0432 53.0459 36.3144 53.0459C35.8449 53.0459 35.3754 53.0459 34.9129 53.0459C34.4504 53.0459 34.2471 52.8427 34.2121 52.3452L34.2051 48.7922Z" fill="#21459C"/>
<path d="M31.6224 48.8273V52.2541C31.6224 52.8078 31.4332 52.9549 30.8726 52.9549C30.312 52.9549 29.8214 52.9549 29.3029 52.9549C29.2195 52.9661 29.1347 52.9581 29.0549 52.9316C28.9752 52.9051 28.9025 52.8608 28.8424 52.8021C28.7823 52.7433 28.7363 52.6716 28.7081 52.5925C28.6798 52.5133 28.6699 52.4288 28.6791 52.3452C28.6791 49.9626 28.6791 47.5799 28.6791 45.1972C28.6791 44.7908 28.8824 44.6016 29.2958 44.6016H30.9497C31.4262 44.6016 31.6504 44.7908 31.6504 45.3023C31.6224 46.4867 31.6224 47.657 31.6224 48.8273Z" fill="#21459C"/>
<path d="M23.1534 48.8201C23.1534 47.6778 23.1534 46.5355 23.1534 45.3932C23.1534 44.7766 23.3005 44.6294 23.9032 44.6294H25.473C25.8864 44.6294 26.0827 44.8186 26.0827 45.2321C26.0827 47.6007 26.0827 49.9694 26.0827 52.338C26.0827 52.7865 25.8725 52.9757 25.3819 52.9828C24.8914 52.9898 24.3377 52.9828 23.8121 52.9828C23.2865 52.9828 23.1113 52.8006 23.1113 52.282C23.1113 51.1257 23.1113 49.9694 23.1113 48.8131L23.1534 48.8201Z" fill="#21459C"/>
<path d="M30.1302 57.1525H20.943C20.3683 57.1525 20.2422 57.0263 20.2422 56.5638C20.2422 56.1013 20.3683 55.863 20.943 55.863H39.4786C40.0042 55.863 40.1794 56.0172 40.1794 56.5218C40.1794 57.0263 40.0252 57.1525 39.4786 57.1525H30.1302Z" fill="#21459C"/>
<path d="M30.139 55.3236H22.7318C22.1432 55.3236 22.0311 55.1624 22.0311 54.5808C22.0253 54.5116 22.0338 54.4421 22.0561 54.3764C22.0784 54.3107 22.114 54.2503 22.1607 54.199C22.2074 54.1478 22.2642 54.1066 22.3275 54.0783C22.3908 54.0499 22.4592 54.0349 22.5286 54.0342C22.6383 54.027 22.7483 54.027 22.8579 54.0342H37.5042C38.156 54.0342 38.3171 54.1953 38.2961 54.791C38.3033 54.867 38.293 54.9437 38.2663 55.0152C38.2395 55.0867 38.1969 55.1512 38.1415 55.2038C38.0862 55.2565 38.0197 55.2959 37.9469 55.319C37.8742 55.3422 37.7971 55.3485 37.7215 55.3376H30.1531L30.139 55.3236Z" fill="#21459C"/>
</svg>
