<svg width="60" height="60" viewBox="0 0 60 60" fill="none" xmlns="http://www.w3.org/2000/svg">
<path d="M13.216 24.9974H45.7902C45.7674 24.6195 45.7674 24.2406 45.7902 23.8627C45.8228 23.6629 45.7916 23.4579 45.701 23.2769C45.6105 23.0958 45.4652 22.9479 45.2858 22.8541C40.0846 19.2767 34.8951 15.6859 29.7174 12.0817C29.6614 12.0292 29.5874 12 29.5107 12C29.4339 12 29.3599 12.0292 29.3039 12.0817C24.0219 15.7498 18.7367 19.4095 13.448 23.0608C13.3727 23.1026 13.3111 23.1653 13.2708 23.2414C13.2305 23.3175 13.2132 23.4037 13.2211 23.4895C13.2261 23.9838 13.216 24.478 13.216 24.9974Z" fill="#21459C"/>
<path d="M46.002 48.2165V46.4161H45.1597V44.6106H13.8615V46.401H12.9991V48.2165H46.002Z" fill="#21459C"/>
<path d="M38.5532 43.8894H41.68V43.5162C41.68 38.9605 41.68 34.4064 41.68 29.854C41.693 29.4296 41.7976 29.0129 41.9864 28.6326C42.1753 28.2522 42.4441 27.9171 42.7743 27.6501C42.8624 27.5974 42.9644 27.5728 43.0669 27.5795C43.783 27.5795 43.7275 27.6653 43.7275 26.9037V26.0615C43.7275 25.8648 43.6468 25.774 43.4401 25.774H36.8133C36.5964 25.774 36.5107 25.8648 36.5107 26.0766C36.5107 26.4851 36.5107 26.8886 36.5107 27.2971C36.5107 27.519 36.6115 27.6199 36.8183 27.5795C37.3226 27.4736 37.6454 27.7712 37.9379 28.1444C38.3538 28.6648 38.575 29.314 38.5633 29.9801C38.5633 34.4888 38.5633 38.9975 38.5633 43.5112L38.5532 43.8894Z" fill="#21459C"/>
<path d="M27.9367 43.8895H31.0635V43.5112C31.0635 38.9555 31.0635 34.4014 31.0635 29.849C31.0755 29.4248 31.1806 29.0083 31.3715 28.6292C31.5624 28.2501 31.8343 27.9176 32.1679 27.6552C32.2688 27.5594 32.4957 27.5846 32.6722 27.5796C33.1211 27.5796 33.1211 27.5796 33.1211 27.1408C33.1211 26.7777 33.1211 26.4146 33.1211 26.0515C33.1211 25.8548 33.0303 25.769 32.8286 25.769H26.1867C25.9648 25.769 25.8841 25.8649 25.8891 26.0716C25.8891 26.4801 25.8891 26.8886 25.8891 27.2921C25.8891 27.4938 25.9698 27.6149 26.1715 27.5745C26.7212 27.4636 27.0339 27.7712 27.3315 28.1646C27.7314 28.6733 27.9465 29.3028 27.9417 29.9499C27.9417 34.4888 27.9417 38.9874 27.9417 43.5062L27.9367 43.8895Z" fill="#21459C"/>
<path d="M17.3256 43.8895H20.4525V43.5112C20.4525 38.9555 20.4525 34.4014 20.4525 29.849C20.4649 29.4254 20.5697 29.0095 20.7596 28.6306C20.9495 28.2516 21.2199 27.9188 21.5519 27.6552C21.6578 27.5594 21.8847 27.5846 22.0562 27.5796C22.5 27.5796 22.5 27.5796 22.5 27.1408C22.5 26.7878 22.5 26.4348 22.5 26.0817C22.5 25.875 22.4294 25.769 22.2075 25.769H15.5958C15.379 25.769 15.2983 25.8649 15.2983 26.0767C15.2983 26.4801 15.2983 26.8886 15.2983 27.2921C15.2983 27.4938 15.384 27.6149 15.5857 27.5745C16.1304 27.4636 16.4431 27.7712 16.7406 28.1646C17.1456 28.6725 17.3614 29.3054 17.3509 29.9549C17.3509 34.4703 17.3509 38.9874 17.3509 43.5062L17.3256 43.8895Z" fill="#21459C"/>
</svg>
