<svg width="31" height="32" viewBox="0 0 31 32" fill="none" xmlns="http://www.w3.org/2000/svg">
<path fill-rule="evenodd" clip-rule="evenodd" d="M5.69473 5.6327C5.33135 6.00886 4.99816 6.47027 4.78273 6.87205C4.51215 7.36312 4.3124 7.90162 4.19197 8.46149L4.1293 8.79978C3.14167 13.981 4.39595 18.616 8.53648 22.8669C11.2532 25.656 13.3132 26.8021 16.1339 27.2205C16.591 27.2883 17.0684 27.3393 17.6365 27.3828L18.8045 27.4561C19.4562 27.491 20.5423 27.5469 20.913 27.5688C21.4013 27.5975 22.0473 27.5009 22.9155 27.2907L23.047 27.2508C23.8049 26.974 24.4969 26.5249 25.0764 25.925C27.1968 23.73 27.1968 20.1712 25.0764 17.9762L24.8874 17.7897C22.8376 15.8597 19.7031 15.8421 17.6341 17.7463L17.3888 17.9758L16.0779 19.3328C15.7906 19.6302 15.3383 19.6705 15.0061 19.4283C14.3152 18.9244 12.4793 17.0665 12.0312 16.4333C11.7876 16.089 11.8229 15.6123 12.1145 15.3107L13.2695 14.1158L13.3682 14.0327L13.5149 13.8921C13.5414 13.8658 13.5683 13.8384 13.5951 13.8108C15.7767 11.5525 15.7767 7.89101 13.5951 5.6327C11.4134 3.37439 7.87635 3.37439 5.69473 5.6327ZM7.46677 7.46704C8.66971 6.2218 10.6201 6.2218 11.823 7.46704C13.026 8.71227 13.026 10.7312 11.823 11.9764C11.7486 12.0535 11.6711 12.1261 11.5907 12.1941L10.3429 13.4759C9.17663 14.6826 9.03514 16.5895 10.0096 17.9664C10.6195 18.8281 12.651 20.884 13.5628 21.549L13.7388 21.669C15.0475 22.5019 16.7507 22.305 17.8499 21.1672L19.0619 19.9122L19.0785 19.9035L19.1952 19.7854C20.339 18.6279 22.1717 18.6381 23.3043 19.8106C24.4461 20.9925 24.4461 22.9088 23.3043 24.0907L23.1095 24.2753C22.9082 24.4496 22.6877 24.5933 22.4527 24.7044L22.2631 24.7833L21.9409 24.8566L21.6007 24.9225C21.3448 24.9669 21.1594 24.985 21.0554 24.9788L18.5109 24.8422L17.8368 24.7968L17.252 24.7459C16.978 24.7186 16.7283 24.6881 16.4894 24.6526C14.2313 24.3177 12.6532 23.4397 10.3012 21.025C6.88366 17.5164 5.82438 13.887 6.52266 9.66733L6.5957 9.25711C6.6619 8.83698 6.78451 8.47495 6.9668 8.14401C7.0778 7.93717 7.27082 7.66987 7.46677 7.46704Z" fill="#B8C0CC"/>
</svg>
