<svg width="60" height="60" viewBox="0 0 60 60" fill="none" xmlns="http://www.w3.org/2000/svg">
<path d="M29.521 57.6681C31.2461 55.4429 29.4854 52.8597 26.4206 52.8286C25.8277 50.4373 25.1756 50.0224 21.4764 49.7163C21.5484 49.2174 21.4909 48.7106 21.3082 48.2337C21.1255 47.7569 20.8223 47.3222 20.4212 46.962C20.0094 46.6001 19.4925 46.3436 18.9262 46.2202C18.3599 46.0967 17.7658 46.1111 17.2081 46.2618C17.552 44.8146 17.2081 43.5852 15.7912 42.7501C14.3744 41.915 12.9694 42.0706 11.6415 42.8746C11.0487 42.3559 10.4559 41.8943 9.86304 41.3704C9.75633 41.2718 9.80378 40.971 9.8927 40.8102C11.2562 38.4293 12.6434 36.0588 14.0424 33.6831C15.0384 31.9714 16.0343 30.2597 17.0065 28.5376C17.0561 28.3987 17.1633 28.2812 17.3071 28.2082C17.4509 28.1352 17.6208 28.1121 17.7832 28.1434C19.0755 28.2471 20.3797 28.3042 21.8084 28.3871L21.2156 28.9422C20.0288 29.9881 19.3185 31.3768 19.2177 32.848C19.1466 34.4237 18.7447 35.9746 18.0321 37.423C17.9811 37.5036 17.949 37.5922 17.9376 37.6837C17.9261 37.7753 17.9356 37.8679 17.9654 37.9562C17.9952 38.0445 18.0447 38.1268 18.1111 38.1982C18.1775 38.2696 18.2595 38.3288 18.3522 38.3722C18.9713 38.7322 19.6856 38.947 20.4268 38.996C21.168 39.0451 21.9112 38.9267 22.585 38.6523C23.4604 38.3932 24.2329 37.9206 24.8116 37.2902C25.3903 36.6598 25.7511 35.8978 25.8515 35.094C26.0044 34.3137 26.3459 33.571 26.8533 32.9155C27.7662 31.6861 29.4498 31.266 31.2579 31.8106C32.1547 32.0682 32.9861 32.4751 33.7063 33.0088C38.9231 37.0755 44.0925 41.1836 49.2678 45.2866C49.8635 45.7271 50.2366 46.3553 50.3065 47.035C50.3764 47.7146 50.1374 48.391 49.6412 48.9175C49.146 49.4291 48.4461 49.7559 47.6847 49.8311C46.9233 49.9063 46.158 49.7243 45.5449 49.3221C41.9405 47.0191 38.3481 44.6953 34.7437 42.387C34.5125 42.2418 34.222 41.8683 33.9375 42.1899C33.6529 42.5115 34.1449 42.6568 34.3643 42.7968C37.8382 45.0411 41.3141 47.2802 44.792 49.514C45.2598 49.8407 45.6035 50.2836 45.778 50.7845C45.9526 51.2854 45.9499 51.8208 45.7701 52.3202C45.5535 52.8215 45.1535 53.2459 44.6324 53.5274C44.1112 53.8089 43.4982 53.9316 42.8891 53.8764C42.1825 53.7933 41.5083 53.5658 40.9209 53.2124C37.69 51.1065 34.5066 48.9435 31.3054 46.8012L31.169 46.713C30.9556 46.5885 30.7303 46.3344 30.5109 46.63C30.4517 46.713 30.6295 47.0139 30.7836 47.1228C32.3842 48.2121 33.9968 49.2806 35.6033 50.3595L40.1146 53.3784C40.3407 53.5231 40.5303 53.7072 40.6714 53.919C40.8124 54.1309 40.9018 54.3659 40.934 54.6095C40.9663 54.853 40.9408 55.0997 40.8589 55.3342C40.7771 55.5686 40.6407 55.7858 40.4585 55.9719C40.2609 56.2081 40.012 56.4076 39.7258 56.5591C39.4397 56.7105 39.122 56.8108 38.7913 56.8542C38.4606 56.8976 38.1232 56.8833 37.7989 56.812C37.4745 56.7406 37.1695 56.6138 36.9015 56.4388C35.2654 55.4584 33.6588 54.4366 32.0345 53.4251C30.8489 52.7093 29.7284 51.9831 28.5724 51.2621C28.5131 51.2206 28.4538 51.1583 28.3886 51.148C28.2048 51.148 28.0211 51.148 27.8433 51.148C27.9085 51.2984 27.9263 51.5059 28.0567 51.5889C28.9519 52.175 29.8351 52.7352 30.7717 53.3058C31.9277 54.0268 33.0779 54.753 34.2457 55.4584C34.3843 55.5215 34.4889 55.6299 34.5366 55.7601C34.5844 55.8902 34.5714 56.0316 34.5006 56.1535C33.7418 58.0571 31.6551 58.8404 29.8055 57.9015C29.7049 57.8293 29.6099 57.7513 29.521 57.6681Z" fill="#21459C"/>
<path d="M48.7652 44.1663L44.823 41.0541L34.2115 32.6614C33.5854 32.1295 32.8419 31.7149 32.0265 31.4429C31.2111 31.1709 30.3408 31.0472 29.4689 31.0793C27.5897 31.1675 26.1195 32.2983 25.4556 34.1345C25.3315 34.4715 25.2501 34.8194 25.2125 35.1719C24.928 37.4024 21.8869 39.0726 19.48 38.2842C19.1479 38.1546 18.8252 38.0074 18.5137 37.8433C19.474 36.116 19.6994 34.3109 19.895 32.4954C20.0906 30.6799 21.2763 29.4921 22.7524 28.408C24.1623 27.3604 25.8079 26.5836 27.5828 26.1279C29.3577 25.6721 31.2222 25.5477 33.0555 25.7626C35.563 26.0827 38.0315 26.6036 40.4301 27.3187C41.0941 27.4899 41.7937 27.5833 42.4636 27.7493C42.7075 27.8018 42.9194 27.9334 43.0564 28.1175C45.5305 32.5888 47.9867 37.0635 50.4251 41.5416C50.5129 41.6807 50.5402 41.8428 50.5021 41.9981C50.117 42.826 49.5233 43.5671 48.7652 44.1663Z" fill="#21459C"/>
<path d="M18.1516 25.2802C18.033 25.5396 17.9736 25.6952 17.8906 25.8404L8.18032 42.6309C7.78313 43.3208 7.53419 43.383 6.74574 43.0355L2.59601 41.2045C1.94984 40.9192 1.85488 40.6598 2.18686 40.0841L11.8973 23.2936C12.2767 22.6348 12.5493 22.5622 13.2963 22.8942C14.6953 23.5114 16.1003 24.1287 17.4875 24.7667C17.7317 24.9138 17.9547 25.0863 18.1516 25.2802Z" fill="#21459C"/>
<path d="M57.823 40.4369C57.6748 40.5821 57.5443 40.8259 57.3309 40.9193C55.7896 41.6109 54.2405 42.2662 52.6833 42.8852C52.1557 43.103 51.8889 42.9733 51.5806 42.4183C50.1421 39.7937 48.7035 37.1673 47.2649 34.5392C45.6366 31.5514 44.0044 28.5654 42.3682 25.5811C41.9888 24.8809 42.06 24.6682 42.8484 24.331C44.2771 23.7242 45.7117 23.1276 47.1464 22.5311C47.7095 22.3029 48.0059 22.3963 48.2845 22.8994C51.3988 28.5741 54.5071 34.247 57.6095 39.9182C57.657 40.0478 57.7222 40.1931 57.823 40.4369Z" fill="#21459C"/>
<path d="M23.5811 11.7575V3.88354H36.1844V11.7575H23.5811Z" fill="#21459C"/>
<path d="M32.8644 25.192C30.7867 25.0236 28.6916 25.2247 26.7051 25.7833C26.9422 22.1524 27.1793 18.5993 27.4164 14.9943H32.491C32.6155 18.3347 32.7577 21.7323 32.8644 25.192Z" fill="#21459C"/>
<path d="M14.2206 42.7814C14.713 42.8178 15.1838 42.9748 15.579 43.2344C15.9743 43.494 16.2781 43.8457 16.4555 44.2493C16.7142 44.6895 16.8071 45.19 16.7208 45.6791C16.6345 46.1683 16.3736 46.621 15.9753 46.9725C14.9319 47.9529 13.8412 48.8969 12.7326 49.8202C12.1859 50.2481 11.4734 50.4775 10.7401 50.4615C10.0068 50.4455 9.30804 50.1854 8.78636 49.7343C8.26468 49.2831 7.95939 48.6748 7.93259 48.0335C7.90579 47.3921 8.15957 46.7659 8.64221 46.2826C9.68557 45.2971 10.7882 44.3634 11.8849 43.4349C12.454 42.9525 13.0942 42.7762 14.2206 42.7814Z" fill="#21459C"/>
<path d="M15.5188 54.1514C15.0467 54.1293 14.5868 54.0126 14.1744 53.8103C13.762 53.6081 13.408 53.3257 13.14 52.985C12.872 52.6442 12.697 52.2541 12.6284 51.8448C12.5598 51.4356 12.5995 51.018 12.7445 50.6242C12.7829 50.5326 12.8436 50.4495 12.9223 50.3804C14.019 49.4416 15.098 48.4975 16.2066 47.5742C17.4278 46.5368 18.4118 46.4227 19.5559 47.0555C20.1126 47.3772 20.529 47.8538 20.7377 48.4083C20.9464 48.9627 20.9352 49.5625 20.706 50.1107C20.5442 50.5309 20.295 50.9213 19.9709 51.2622C19.2358 51.9936 18.4474 52.6835 17.6589 53.3734C17.3815 53.6236 17.0485 53.8217 16.6806 53.9555C16.3126 54.0893 15.9172 54.1559 15.5188 54.1514Z" fill="#21459C"/>
<path d="M40.4655 7.83611C40.4655 9.21587 40.4655 10.5904 40.4655 11.9858C40.4833 12.201 40.4507 12.4171 40.3697 12.621C40.2888 12.8248 40.1612 13.0121 39.9947 13.1713C39.8283 13.3306 39.6265 13.4585 39.4016 13.5471C39.1768 13.6358 38.9337 13.6834 38.6871 13.6871C38.4353 13.691 38.1853 13.6495 37.9527 13.565C37.7201 13.4806 37.51 13.3552 37.3353 13.1965C37.1606 13.0378 37.0253 12.8493 36.9376 12.6428C36.8499 12.4362 36.8118 12.2161 36.8257 11.9961C36.8257 9.2297 36.8257 6.46327 36.8257 3.69684C36.8082 3.47997 36.8428 3.2623 36.9273 3.05786C37.0118 2.85342 37.1443 2.66675 37.3163 2.50988C37.4884 2.353 37.6961 2.22941 37.9261 2.14707C38.1561 2.06472 38.4031 2.02545 38.6515 2.03179C38.8978 2.02704 39.1425 2.06712 39.3702 2.1495C39.5979 2.23187 39.8036 2.35474 39.9742 2.51031C40.1447 2.66588 40.2765 2.85076 40.3611 3.05322C40.4456 3.25569 40.4812 3.47133 40.4655 3.68646C40.4655 5.05585 40.4655 6.44598 40.4655 7.83611Z" fill="#21459C"/>
<path d="M19.301 7.78954C19.301 6.43053 19.301 5.07152 19.301 3.71251C19.2755 3.49193 19.3042 3.26914 19.3851 3.05905C19.466 2.84896 19.5973 2.65643 19.7702 2.49435C19.9431 2.33227 20.1537 2.20439 20.3876 2.11927C20.6216 2.03415 20.8735 1.99375 21.1268 2.00078C21.3783 2.00077 21.6272 2.04637 21.8575 2.13469C22.0879 2.22302 22.2948 2.35217 22.4653 2.51398C22.6357 2.67579 22.7659 2.86676 22.8478 3.07483C22.9297 3.2829 22.9613 3.50356 22.9408 3.72289C22.9408 6.45474 22.9408 9.18832 22.9408 11.9236C22.961 12.1414 22.9304 12.3605 22.851 12.5676C22.7715 12.7747 22.6449 12.9656 22.4786 13.1285C22.3123 13.2915 22.1098 13.4232 21.8836 13.5157C21.6574 13.6082 21.412 13.6595 21.1624 13.6665C20.0657 13.6665 19.3307 12.9714 19.3247 11.9133C19.3247 10.5387 19.3247 9.16412 19.3247 7.76361L19.301 7.78954Z" fill="#21459C"/>
<path d="M21.6076 57.1287C19.4734 57.1287 17.7899 55.7853 17.8492 54.3796C17.8745 54.1254 17.9929 53.8853 18.187 53.6949C18.8331 53.0672 19.5387 52.4915 20.1908 51.869C20.5285 51.5819 20.8054 51.2447 21.0088 50.8731C21.0663 50.6826 21.204 50.518 21.3941 50.4122C21.5842 50.3065 21.8127 50.2673 22.0344 50.3026C22.7084 50.3276 23.376 50.4287 24.0204 50.6034C24.4241 50.7503 24.7835 50.977 25.0704 51.2658C25.3573 51.5545 25.564 51.8973 25.6742 52.2676C25.7844 52.6378 25.7952 53.0253 25.7058 53.3998C25.6163 53.7743 25.429 54.1256 25.1585 54.4263C24.6488 55.0609 24.0944 55.6673 23.4986 56.2417C23.0223 56.7394 22.3449 57.0571 21.6076 57.1287Z" fill="#21459C"/>
<path d="M26.1194 58.9391C25.6865 58.9686 25.2533 58.886 24.8738 58.7015C24.4943 58.517 24.1852 58.2388 23.9852 57.9017C23.5761 57.2533 23.6176 56.9784 24.1571 56.4026C24.6136 55.9151 25.076 55.4327 25.5028 54.9295C25.7751 54.6554 25.9772 54.3335 26.0956 53.9855C26.2261 53.3941 26.6232 53.3941 27.1212 53.4668C27.6522 53.524 28.1533 53.7132 28.5652 54.0119C28.9771 54.3107 29.2824 54.7066 29.445 55.1526C29.6096 55.5798 29.6242 56.0404 29.4868 56.4749C29.3495 56.9094 29.0666 57.298 28.6745 57.5905C28.3899 57.8343 28.1112 58.0832 27.8207 58.3167C27.3665 58.7084 26.757 58.9314 26.1194 58.9391Z" fill="#21459C"/>
<path d="M34.0917 12.3749C34.0917 12.7432 34.0917 13.0751 34.0917 13.4123C34.0736 13.6765 33.9408 13.9246 33.7204 14.1059C33.4999 14.2872 33.2086 14.3879 32.9061 14.3875C30.93 14.4082 28.9659 14.4082 27.0135 14.3875C26.7148 14.3883 26.4267 14.2905 26.2069 14.1135C25.9871 13.9366 25.8518 13.6935 25.8279 13.433C25.8048 13.0875 25.8048 12.7411 25.8279 12.3956L34.0917 12.3749Z" fill="#21459C"/>
</svg>
