<svg width="52" height="52" viewBox="0 0 52 52" fill="none" xmlns="http://www.w3.org/2000/svg">
<path d="M0.75 25.6875C0.75 13.9319 0.75 8.05402 4.40201 4.40201C8.05402 0.75 13.9319 0.75 25.6875 0.75C37.4432 0.75 43.321 0.75 46.973 4.40201C50.625 8.05402 50.625 13.9319 50.625 25.6875C50.625 37.4432 50.625 43.321 46.973 46.973C43.321 50.625 37.4432 50.625 25.6875 50.625C13.9319 50.625 8.05402 50.625 4.40201 46.973C0.75 43.321 0.75 37.4432 0.75 25.6875Z" stroke="#141B34" stroke-width="1.5"/>
<path d="M20.4375 38.8125L29.9597 27.3273C30.6116 26.541 30.9375 26.1479 30.9375 25.6875C30.9375 25.2271 30.6116 24.834 29.9597 24.0477L20.4375 12.5625" stroke="#141B34" stroke-width="3" stroke-linecap="round" stroke-linejoin="round"/>
</svg>
