<svg width="60" height="60" viewBox="0 0 60 60" fill="none" xmlns="http://www.w3.org/2000/svg">
<path d="M56.915 37.1947C56.0006 35.4451 55.1208 33.6708 54.2312 31.9014C52.4981 28.4682 50.7617 25.0333 49.022 21.5967C48.9726 21.4397 48.8848 21.2975 48.7665 21.183C48.6481 21.0686 48.5031 20.9855 48.3445 20.9413C48.1859 20.8971 48.0188 20.8932 47.8584 20.93C47.6979 20.9668 47.5492 21.043 47.4257 21.1519C45.943 22.1008 44.4603 23.0646 42.9776 24.0135C42.8475 24.1022 42.6987 24.1597 42.5427 24.1815C41.2133 24.3051 39.8788 24.4188 38.5493 24.5226C38.4131 24.5234 38.2795 24.4857 38.1638 24.4138C37.2396 23.9196 36.3451 23.371 35.416 22.8916C34.5154 22.4373 33.5315 22.1716 32.5247 22.1107C31.5745 22.0668 30.6223 22.1198 29.6829 22.2689C28.8102 22.3719 27.9731 22.6746 27.2365 23.1535C26.4358 23.7071 25.6055 24.2359 24.7653 24.7598C24.6275 24.8508 24.4659 24.899 24.3008 24.8982C22.9663 24.8092 21.6319 24.7005 20.2975 24.5918C18.963 24.483 17.5742 24.3545 16.2052 24.2606C16.0856 24.2684 15.9664 24.2413 15.8619 24.1825C15.7575 24.1237 15.6725 24.0358 15.6171 23.9295C15.5331 23.8057 15.4145 23.7094 15.2761 23.6527C13.3387 22.773 11.4063 21.8982 9.46398 21.0382C9.33046 20.9678 9.18256 20.9288 9.03165 20.9244C8.88075 20.92 8.73083 20.9502 8.59341 21.0127C8.45599 21.0752 8.33474 21.1683 8.23891 21.285C8.14308 21.4017 8.07518 21.5387 8.04054 21.6857C8.01089 21.7746 7.97632 21.8587 7.94666 21.9427L2.11968 38.3117C1.82808 39.1173 2.07023 39.6461 2.83629 39.8734L8.41121 41.5538C9.22175 41.796 9.454 41.7268 9.97788 41.0596C10.6846 41.4748 11.3815 41.885 12.0833 42.2853C12.1484 42.3145 12.2024 42.3639 12.2371 42.4263C12.2719 42.4886 12.2856 42.5605 12.2761 42.6313C12.2484 43.2839 12.4571 43.9246 12.8639 44.4358C13.2706 44.9469 13.8481 45.2942 14.4903 45.4138C14.7491 45.449 15.0099 45.4688 15.2712 45.4731C15.469 46.236 15.9496 46.895 16.6155 47.3166C17.2894 47.7482 18.1066 47.8957 18.8889 47.7268C19.1426 48.4704 19.6614 49.0945 20.346 49.4801C21.0306 49.8657 21.8331 49.9858 22.6005 49.8174C22.6302 49.8718 22.65 49.8965 22.6648 49.9212C22.8214 50.3101 23.0657 50.6575 23.3788 50.9363C23.6919 51.2151 24.0653 51.4177 24.4697 51.5282C24.8741 51.6388 25.2986 51.6543 25.71 51.5736C26.1213 51.4928 26.5084 51.3181 26.841 51.0629C26.89 51.0409 26.943 51.0296 26.9967 51.0296C27.0504 51.0296 27.1034 51.0409 27.1524 51.0629C27.3995 51.1716 27.6467 51.3248 27.874 51.4335C29.1689 52.0365 30.5181 52.3676 31.9267 51.9278C32.5459 51.6995 33.1486 51.4286 33.7306 51.1172C34.1295 51.3666 34.5772 51.5274 35.0436 51.5887C35.51 51.6501 35.9842 51.6107 36.434 51.4731C36.8975 51.3165 37.3178 51.0534 37.6611 50.7049C38.0045 50.3564 38.2612 49.9322 38.4109 49.4665C39.4389 49.9607 40.4522 50.0645 41.4505 49.4418C41.9149 49.1767 42.303 48.7964 42.5775 48.3376C42.8519 47.8787 43.0033 47.3568 43.0172 46.8223C43.5508 46.9175 44.1006 46.8572 44.601 46.6486C45.1013 46.4401 45.5311 46.0921 45.8392 45.6461C46.546 44.6576 46.4718 43.6296 45.9875 42.5719L48.7305 40.595L49.1802 41.198C49.2448 41.3244 49.3358 41.4354 49.4471 41.5235C49.5584 41.6115 49.6875 41.6746 49.8254 41.7083C49.9632 41.7421 50.1067 41.7458 50.2461 41.7191C50.3855 41.6924 50.5175 41.6361 50.6332 41.5538C52.5212 40.6692 54.4043 39.7746 56.3021 38.9146C56.4752 38.8676 56.6343 38.7793 56.7659 38.6575C56.8976 38.5356 56.9976 38.3837 57.0578 38.2148C57.118 38.0458 57.1365 37.8648 57.1116 37.6872C57.0867 37.5095 57.0193 37.3406 56.915 37.1947ZM10.6748 35.3265C10.4326 35.8652 10.1806 36.399 9.91369 36.9278C9.77036 37.2243 9.6172 37.5159 9.46893 37.8125C9.17569 38.3858 8.87417 38.9542 8.56445 39.5176L4.25478 38.2227L5.58918 34.4814C6.9236 30.745 8.25313 27.0135 9.59249 23.2524L13.8032 25.1403C13.7077 25.7828 13.594 26.4204 13.4622 27.053C13.398 27.3693 13.3239 27.6807 13.2497 27.9921C13.1756 28.3034 13.0965 28.6148 13.0125 28.9262C12.9285 29.2375 12.8445 29.539 12.7555 29.8455C12.6665 30.1519 12.5677 30.4583 12.4688 30.7598C12.3008 31.2935 12.118 31.8174 11.9203 32.3413C11.8857 32.4253 11.856 32.5044 11.8312 32.5835C11.6088 33.1716 11.3716 33.7548 11.1196 34.338C11.0108 34.595 10.8972 34.8323 10.7786 35.1189L10.6748 35.3265ZM16.4721 41.8207C16.4721 41.8652 16.4276 41.9295 16.3979 41.9888C16.3828 42.0217 16.3646 42.0531 16.3436 42.0827C16.1262 42.4286 15.8889 42.7647 15.6566 43.1008C15.5453 43.2681 15.3743 43.3864 15.1785 43.4314C14.9827 43.4764 14.7771 43.4448 14.6039 43.343C14.5478 43.3085 14.4977 43.2651 14.4556 43.2144L14.3914 43.1403C14.3655 43.1059 14.3423 43.0696 14.3222 43.0316C14.3069 42.9961 14.2938 42.9598 14.2827 42.9228C14.2682 42.8846 14.2582 42.8448 14.253 42.8042C14.2506 42.7647 14.2506 42.7251 14.253 42.6856C14.2517 42.544 14.2911 42.405 14.3667 42.2853C14.6089 41.8998 14.861 41.5242 15.1575 41.1584C15.2605 41.0343 15.4006 40.9467 15.5573 40.9084C15.7139 40.8701 15.8786 40.8833 16.0272 40.9459C16.1839 41.014 16.3156 41.129 16.4041 41.2751C16.4926 41.4211 16.5336 41.591 16.5215 41.7614L16.4721 41.8207ZM20.2579 43.5406C19.8576 44.1732 19.4325 44.7911 19.0223 45.4138C18.8604 45.6069 18.634 45.7347 18.3851 45.7738C18.1361 45.8129 17.8814 45.7605 17.6681 45.6263C17.5448 45.5545 17.4378 45.4577 17.3539 45.3423C17.27 45.2268 17.2111 45.0952 17.1809 44.9557C17.1507 44.8163 17.1499 44.672 17.1785 44.5322C17.2071 44.3924 17.2644 44.26 17.3469 44.1436C17.6978 43.6098 18.0586 43.081 18.4243 42.5571C18.513 42.4033 18.6415 42.2763 18.7963 42.1893C18.9511 42.1023 19.1265 42.0586 19.304 42.0629C19.5716 42.0567 19.8316 42.1522 20.0315 42.3301C20.2315 42.5081 20.3565 42.7552 20.3814 43.0217C20.3988 43.2067 20.3554 43.3924 20.2579 43.5505V43.5406ZM22.8427 47.3709C22.7292 47.5261 22.5804 47.652 22.4084 47.738C22.2365 47.8239 22.0465 47.8675 21.8542 47.8652C21.6453 47.8583 21.4424 47.7937 21.2679 47.6786C21.0935 47.5634 20.9542 47.4022 20.8658 47.2128C20.775 47.0409 20.7369 46.8461 20.7562 46.6528C20.7755 46.4594 20.8515 46.276 20.9745 46.1255C21.4687 45.4484 21.8888 44.7367 22.3435 44.0448C22.4235 43.9096 22.5301 43.7921 22.657 43.6994C22.7838 43.6068 22.9282 43.541 23.0814 43.506C23.2345 43.471 23.3931 43.4676 23.5476 43.496C23.7021 43.5243 23.8492 43.5838 23.9799 43.6708C24.1107 43.7579 24.2223 43.8706 24.308 44.0023C24.3937 44.1339 24.4517 44.2815 24.4785 44.4363C24.5053 44.5911 24.5003 44.7497 24.4638 44.9024C24.4272 45.0552 24.36 45.1989 24.2661 45.3248C23.7917 46.0266 23.3171 46.712 22.8427 47.3808V47.3709ZM27.0238 47.5241C26.8657 47.791 26.6829 48.0184 26.505 48.2902C26.4559 48.3512 26.3908 48.3973 26.3171 48.4237C26.0654 48.4728 25.8409 48.6139 25.6874 48.8195C25.5339 49.025 25.4625 49.2803 25.4869 49.5357C25.3381 49.6087 25.1686 49.6279 25.0074 49.59C24.8461 49.5522 24.7029 49.4596 24.6022 49.3281C24.4888 49.2051 24.4239 49.0452 24.4194 48.878C24.4148 48.7108 24.471 48.5477 24.5774 48.4187C24.9679 47.8405 25.3633 47.2671 25.7686 46.6938C25.8799 46.5315 26.0505 46.4192 26.2437 46.3813C26.4368 46.3435 26.6371 46.3829 26.8015 46.4912C26.9657 46.6029 27.0806 46.7737 27.1221 46.968C27.1635 47.1623 27.1283 47.365 27.0238 47.534V47.5241ZM28.215 49.3034C28.299 49.1897 28.3682 49.081 28.4374 48.9821C28.5066 48.8833 28.566 48.7894 28.6203 48.7054C28.6974 48.5898 28.7667 48.4693 28.8279 48.3446C28.8818 48.2404 28.9297 48.1331 28.9712 48.0233C29.0247 47.8846 29.0628 47.7404 29.0849 47.5933C29.0849 47.5192 29.1144 47.4451 29.1243 47.3611L30.5676 48.567L32.0008 49.763C30.9481 50.4698 29.1244 49.9904 28.215 49.3133V49.3034ZM44.228 44.5093C44.1088 44.6623 43.943 44.7721 43.7556 44.822C43.5683 44.872 43.3697 44.8594 43.1902 44.7861C42.6971 44.6344 42.234 44.3987 41.8212 44.0892C38.9596 41.6675 36.1276 39.2062 33.2858 36.7598C33.1906 36.6567 33.0746 36.5751 32.9454 36.5203C32.8163 36.4656 32.6769 36.439 32.5366 36.4423C32.3964 36.4455 32.2584 36.4786 32.1319 36.5393C32.0055 36.6001 31.8934 36.687 31.8031 36.7944C31.7126 36.8981 31.6447 37.0196 31.6038 37.1511C31.5629 37.2826 31.55 37.4212 31.5658 37.558C31.5816 37.6948 31.6258 37.8268 31.6956 37.9455C31.7654 38.0643 31.8592 38.1671 31.9711 38.2474C34.7388 40.6395 37.5131 43.0283 40.294 45.4138C40.5324 45.5708 40.7255 45.7876 40.8538 46.0426C40.9822 46.2976 41.0413 46.5818 41.0254 46.8668C41.0134 47.0336 40.9618 47.195 40.8749 47.3379C40.7881 47.4807 40.6685 47.6008 40.526 47.6882C40.3835 47.7757 40.2222 47.8279 40.0555 47.8406C39.8889 47.8533 39.7216 47.8262 39.5675 47.7614C39.0316 47.4992 38.5329 47.1668 38.0848 46.7729C35.2034 44.3018 32.3419 41.8306 29.4704 39.3594C29.375 39.2628 29.2606 39.1868 29.1346 39.1363C29.0085 39.0858 28.8734 39.0618 28.7376 39.0658C28.6019 39.0698 28.4684 39.1017 28.3456 39.1596C28.2227 39.2175 28.1131 39.3001 28.0235 39.4022C27.934 39.5043 27.8666 39.6238 27.8253 39.7532C27.784 39.8826 27.7697 40.019 27.7835 40.1541C27.7973 40.2893 27.8388 40.4201 27.9054 40.5385C27.972 40.6568 28.0622 40.7602 28.1705 40.8421C30.7059 43.0365 33.2463 45.221 35.7669 47.4302C36.0243 47.6632 36.2297 47.9478 36.3698 48.2655C36.4382 48.419 36.4644 48.588 36.4456 48.755C36.4268 48.922 36.3638 49.081 36.263 49.2155C36.1623 49.35 36.0274 49.4552 35.8724 49.5202C35.7174 49.5851 35.5479 49.6076 35.3814 49.5851C34.9697 49.5404 34.5824 49.3675 34.2743 49.0909C32.9646 48.0085 31.6598 46.9162 30.3551 45.8289L30.103 45.6164C30.0091 45.5143 29.8954 45.4324 29.7689 45.3756C29.6424 45.3188 29.5055 45.2883 29.3669 45.2859C29.2282 45.2836 29.0905 45.3096 28.9622 45.3621C28.8338 45.4147 28.7176 45.4928 28.6203 45.5917C28.3842 45.2448 28.0735 44.955 27.7109 44.7438C27.3483 44.5326 26.943 44.4052 26.5248 44.3709C26.4831 44.357 26.4455 44.3331 26.4154 44.3012C26.3852 44.2693 26.3633 44.2304 26.3518 44.1881C26.2547 43.4636 25.9031 42.7974 25.3598 42.3084C24.8165 41.8195 24.117 41.5397 23.3864 41.5192C23.1992 41.6532 22.983 41.741 22.7553 41.7753C22.5277 41.8097 22.2951 41.7896 22.0767 41.7168C21.8583 41.644 21.6603 41.5205 21.4988 41.3565C21.3373 41.1924 21.2169 40.9925 21.1475 40.7729C20.7626 40.4524 20.3005 40.2382 19.8072 40.1515C19.3139 40.0648 18.8065 40.1087 18.3354 40.2787C18.3013 40.2955 18.2643 40.3054 18.2264 40.3078C18.1885 40.3101 18.1505 40.3049 18.1147 40.2925C18.0788 40.2801 18.0459 40.2607 18.0176 40.2354C17.9893 40.2101 17.9662 40.1795 17.9499 40.1453C17.7002 39.768 17.3611 39.4585 16.9626 39.2444C16.5642 39.0303 16.1188 38.9182 15.6665 38.9182C15.2141 38.9182 14.7689 39.0303 14.3704 39.2444C13.972 39.4585 13.6328 39.768 13.3832 40.1453C13.2893 40.2836 13.1904 40.422 13.0767 40.595L10.8923 39.3298C11.99 37.2759 12.9494 35.1509 13.7638 32.969C14.5826 30.781 15.1932 28.5205 15.5874 26.2178L22.5906 26.7664C22.3929 27.5324 22.1656 28.2787 22.0223 29.0399C21.9528 29.4089 21.7817 29.7513 21.5281 30.0283C21.0006 30.6231 20.6422 31.3485 20.4902 32.1288C20.3978 32.5106 20.3913 32.9081 20.4708 33.2927C20.5504 33.6774 20.7142 34.0396 20.9505 34.3534C21.1868 34.6672 21.4897 34.9247 21.8373 35.1075C22.185 35.2903 22.5689 35.3938 22.9613 35.4105C23.8265 35.4986 24.7 35.363 25.4978 35.0169C26.2957 34.6707 26.9912 34.1256 27.5181 33.4336C28.0123 32.8207 28.4176 32.114 28.8772 31.4567C28.962 31.3318 29.0853 31.2381 29.2282 31.1898C29.4601 31.1319 29.6966 31.0939 29.9349 31.0761C30.1972 31.0445 30.4632 31.0726 30.7131 31.1581C30.963 31.2437 31.1902 31.3846 31.378 31.5703C34.1556 34.1107 36.953 36.6263 39.7306 39.1667C41.07 40.3874 42.3895 41.6378 43.709 42.8635C43.8883 43.0366 44.0461 43.2308 44.1787 43.4418C44.2994 43.5933 44.3691 43.779 44.378 43.9725C44.3869 44.166 44.3343 44.3573 44.228 44.5192V44.5093ZM44.7222 41.0151L43.3088 39.7153L33.4587 30.6955C33.1029 30.3743 32.7273 30.0728 32.3616 29.7664C32.002 29.4765 31.5861 29.2649 31.1402 29.1449C30.6943 29.0249 30.2282 28.9992 29.7718 29.0695C29.2196 29.147 28.6731 29.261 28.1359 29.4105C27.9712 29.4536 27.8188 29.5346 27.691 29.647C27.5631 29.7594 27.4633 29.9001 27.3995 30.058C26.9632 31.0075 26.3492 31.8648 25.5906 32.5835C25.2744 32.8891 24.8933 33.1194 24.4757 33.2572C24.0581 33.395 23.6148 33.4367 23.1789 33.3792C23.0627 33.386 22.9465 33.3636 22.8412 33.3141C22.7359 33.2645 22.6447 33.1894 22.5759 33.0955C22.5071 33.0017 22.463 32.892 22.4474 32.7767C22.4318 32.6614 22.4454 32.544 22.4869 32.4352C22.6188 31.8509 22.9445 31.3283 23.4111 30.9525C23.7044 30.6696 23.8808 30.2869 23.9054 29.8801C23.9894 29.3315 24.1079 28.7828 24.2315 28.2342C24.4484 27.55 24.9236 26.9774 25.556 26.6379C26.5692 25.9509 27.5726 25.259 28.6253 24.661C29.1083 24.4282 29.6286 24.2826 30.1623 24.2309C31.0953 24.0539 32.0522 24.0422 32.9892 24.1964C33.9036 24.4029 34.7783 24.7568 35.579 25.2441C36.1671 25.5605 36.7305 25.9311 37.2841 26.3018C37.5341 26.4883 37.8426 26.5795 38.1539 26.5588L41.7026 26.2721C41.8706 26.2721 42.0386 26.2721 42.2313 26.2721C42.8 28.508 43.5386 30.6973 44.4406 32.8207C45.3332 34.9451 46.3976 36.9931 47.6234 38.9443L44.7222 41.0151ZM52.4323 38.4797C51.8392 38.7614 51.2362 39.0332 50.6431 39.3248C50.4602 39.4138 50.3664 39.399 50.2379 39.2161C48.2685 36.3682 46.6847 33.2721 45.5279 30.0085C45.0337 28.6296 44.6382 27.2112 44.2132 25.8125C44.2001 25.7611 44.1997 25.7074 44.2117 25.6558C44.2238 25.6042 44.248 25.5563 44.2824 25.516C45.3994 24.7845 46.5262 24.0679 47.6777 23.3265L54.7848 37.3726L52.4323 38.4797Z" fill="#21459C"/>
<path d="M27.806 17.6034C27.8239 17.8502 27.7486 18.0949 27.5948 18.2889C27.4411 18.4829 27.2202 18.6122 26.9757 18.6511C26.7368 18.6999 26.4883 18.6532 26.2833 18.5211C26.0782 18.3891 25.933 18.1821 25.8786 17.9444C25.7105 17.1437 25.5919 16.3332 25.4584 15.5226C25.1619 13.7302 24.867 11.9362 24.5737 10.1405C24.5194 9.80437 24.4601 9.46829 24.4206 9.15199C24.4012 9.01977 24.4089 8.885 24.443 8.75582C24.4772 8.62664 24.5372 8.50574 24.6194 8.40041C24.7017 8.29508 24.8044 8.20751 24.9215 8.14301C25.0385 8.0785 25.1673 8.03841 25.3002 8.02512C25.5458 8.004 25.7905 8.07543 25.9862 8.22539C26.1819 8.37534 26.3145 8.59301 26.3579 8.83567C26.6051 10.2755 26.8439 11.7154 27.0745 13.1553C27.3052 14.5951 27.5391 16.0136 27.7763 17.4106C27.7862 17.4699 27.8011 17.5589 27.806 17.6034Z" fill="#21459C"/>
<path d="M35.4838 9.13215C35.3356 10.2096 35.1923 11.3414 35.0341 12.4682C34.787 14.2442 34.5349 16.0168 34.2779 17.7862C34.2615 17.915 34.2197 18.0394 34.1551 18.1521C34.0905 18.2649 34.0044 18.3638 33.9016 18.4432C33.7988 18.5226 33.6813 18.581 33.5559 18.6149C33.4305 18.6489 33.2997 18.6578 33.1709 18.6412C33.0455 18.6296 32.9236 18.5929 32.8126 18.5332C32.7017 18.4736 32.6039 18.3922 32.5251 18.294C32.4462 18.1958 32.388 18.0827 32.3538 17.9615C32.3195 17.8403 32.31 17.7134 32.3258 17.5885C32.4147 16.7236 32.5481 15.8587 32.6667 14.9987C32.9386 13.0218 33.2202 11.0745 33.4822 9.1124C33.4795 8.89117 33.5418 8.67401 33.6612 8.48779C33.7807 8.30157 33.9522 8.15446 34.1544 8.06462C34.3154 8.00334 34.4897 7.98522 34.66 8.01208C34.8302 8.03893 34.9904 8.10982 35.1247 8.21771C35.2591 8.32561 35.3629 8.46678 35.4259 8.62718C35.4889 8.78759 35.5089 8.96166 35.4838 9.13215Z" fill="#21459C"/>
<path d="M43.7978 13.3431C43.7389 13.5412 43.6611 13.7331 43.5656 13.9164C42.4585 15.6561 41.3481 17.3925 40.2345 19.1256C40.138 19.3151 39.9829 19.4684 39.7924 19.5627C39.6018 19.6571 39.3859 19.6875 39.1768 19.6495C38.9751 19.628 38.7865 19.5393 38.6413 19.3976C38.4961 19.256 38.4027 19.0697 38.3762 18.8686C38.3419 18.6232 38.3887 18.3732 38.5096 18.1569C39.6216 16.3777 40.7583 14.6132 41.9 12.8439C42.0111 12.6453 42.1873 12.4911 42.3989 12.4074C42.6105 12.3236 42.8445 12.3155 43.0615 12.3843C43.2667 12.4509 43.4469 12.5782 43.5784 12.7494C43.7098 12.9206 43.7864 13.1275 43.7978 13.3431Z" fill="#21459C"/>
<path d="M20.2479 19.6643C20.1069 19.6534 19.9704 19.6103 19.8487 19.5383C19.727 19.4663 19.6235 19.3674 19.5461 19.2491C18.5181 17.7664 17.4951 16.259 16.4819 14.7566C16.3454 14.5397 16.2985 14.2783 16.3511 14.0275C16.4036 13.7767 16.5516 13.5561 16.7636 13.4123C16.8678 13.3373 16.9859 13.2842 17.1111 13.2563C17.2364 13.2284 17.3659 13.2261 17.4921 13.2497C17.6182 13.2732 17.7383 13.3221 17.845 13.3934C17.9517 13.4647 18.0428 13.5568 18.1129 13.6643C18.8196 14.6528 19.5115 15.6956 20.2084 16.7088C20.5346 17.203 20.8657 17.6676 21.1969 18.1519C21.2987 18.295 21.3567 18.4647 21.3637 18.6403C21.3708 18.8158 21.3264 18.9896 21.2363 19.1404C21.1383 19.3126 20.9934 19.4533 20.8183 19.5461C20.6433 19.6389 20.4454 19.6799 20.2479 19.6643Z" fill="#21459C"/>
<path d="M8.55967 39.5177L4.25 38.2227C6.02428 33.231 7.79859 28.264 9.58276 23.2524L13.7936 25.1404C13.0374 30.2953 11.0555 34.9905 8.55967 39.5177Z" fill="#21459C"/>
</svg>
