<svg width="32" height="33" viewBox="0 0 32 33" fill="none" xmlns="http://www.w3.org/2000/svg">
<g clip-path="url(#clip0_400_308)">
<rect width="32" height="33" fill="#5E5E5E"/>
<path d="M29.6313 0H2.3625C1.05625 0 0 1.06348 0 2.37832V30.6152C0 31.9301 1.05625 33 2.3625 33H29.6313C30.9375 33 32 31.9301 32 30.6217V2.37832C32 1.06348 30.9375 0 29.6313 0ZM9.49375 28.1209H4.74375V12.3686H9.49375V28.1209ZM7.11875 10.2223C5.59375 10.2223 4.3625 8.95254 4.3625 7.38633C4.3625 5.82012 5.59375 4.55039 7.11875 4.55039C8.6375 4.55039 9.86875 5.82012 9.86875 7.38633C9.86875 8.94609 8.6375 10.2223 7.11875 10.2223ZM27.2687 28.1209H22.525V20.4639C22.525 18.6398 22.4937 16.2873 20.0562 16.2873C17.5875 16.2873 17.2125 18.2789 17.2125 20.335V28.1209H12.475V12.3686H17.025V14.5213H17.0875C17.7188 13.2838 19.2688 11.9754 21.575 11.9754C26.3813 11.9754 27.2687 15.2367 27.2687 19.4777V28.1209Z" fill="white"/>
</g>
<rect x="0.5" y="0.5" width="31" height="32" stroke="#84888B"/>
<defs>
<clipPath id="clip0_400_308">
<rect width="32" height="33" fill="white"/>
</clipPath>
</defs>
</svg>
