<svg width="195" height="69" viewBox="0 0 195 69" fill="none" xmlns="http://www.w3.org/2000/svg">
<g clip-path="url(#clip0_240_221)">
<path d="M195 53.5962V68.5419L194.538 69.0031H41.9096L41.4473 68.5419V53.5962H195ZM87.915 63.7633V57.1369L86.0689 56.6757V65.1498L86.5312 65.611H91.7614C92.1621 65.611 92.5319 64.3173 91.9309 63.8994L87.915 63.7602V63.7633ZM101.189 65.5831L102.977 65.1343L99.9349 56.8088H98.0487L95.0068 65.1343C96.8036 66.6138 96.9823 64.2089 97.4385 63.9025C97.9778 63.5404 99.3709 63.9304 100.086 63.5559L101.186 65.5831H101.189ZM107.535 57.0595C107.242 56.7067 106.232 56.6664 105.763 56.6788L108.065 65.3077L108.685 65.6357L109.609 65.3077L111.144 59.4488C111.844 59.4705 111.163 67.1585 114.091 65.481L116.39 56.9821C113.656 55.0632 114.066 62.2281 113.299 62.2281L111.909 56.6788L110.099 57.1523L109.144 62.225C108.33 62.2993 108.645 62.2405 108.534 61.7639C108.324 60.8601 107.945 57.5516 107.532 57.0595H107.535ZM125.149 57.1369V65.1498C125.149 65.5491 126.44 65.9205 126.856 65.317L126.992 61.9124H130.687V60.3711L127.282 60.2381L127.035 58.5637C128.419 57.5485 131.812 59.5572 131.261 57.0254C131.017 56.6355 125.349 56.4374 125.149 57.1369ZM134.38 57.4464C134.062 58.5791 134.38 63.2464 134.38 64.8403C134.38 64.9394 134.731 65.8369 135.132 65.6141L136.232 65.1529C136.873 64.5246 136.229 63.5497 136.21 62.6955C136.186 61.4822 137.123 56.3445 135.193 56.7376C134.956 56.8397 134.426 57.273 134.38 57.4464ZM140.226 57.1369V65.1498C140.226 65.5274 141.878 66.3352 142.088 64.5494C142.174 63.8159 141.965 62.9895 142.097 62.2467L145.019 62.5098L145.195 65.2582L147.007 65.4686C147.74 65.0044 146.381 61.541 146.44 61.1975C146.52 60.7209 147.318 60.334 147.321 59.2941C147.33 56.1619 142.76 56.5395 140.676 56.7902L140.226 57.1369ZM150.998 57.1369V65.1498C150.998 65.7286 152.536 65.7286 152.536 65.1498V59.7583C154.367 61.2842 152.625 66.7933 156.185 65.2674L157.458 59.4519V65.1529C157.458 65.7657 159.304 65.7657 159.304 65.1529V57.14C158.863 56.4807 157.14 56.4436 156.684 56.9821L155.301 62.8409C154.04 61.4142 154.256 58.836 153.707 57.0409C153.106 56.8088 151.235 56.3724 150.995 57.1431L150.998 57.1369Z" fill="#F5FAFD"/>
<path d="M14.3685 7.22066C14.2514 6.80593 12.3806 5.831 11.758 4.28969C10.0721 0.126913 11.8659 -0.454947 15.6814 0.362134C23.5252 2.04272 27.1897 16.8771 30.6971 23.1568C31.5477 24.1565 32.7775 24.6301 33.9548 25.2026C35.1321 25.7752 39.4655 27.756 40.3623 27.7281C42.3841 27.6693 47.0565 25.0974 47.7808 23.1011C48.2554 21.7888 47.2538 22.3367 46.7329 21.3184C46.3723 20.6158 46.7514 20.0525 46.6189 19.6161C46.3723 18.8114 45.3059 18.8517 45.4508 17.4156C45.6449 15.4781 48.8317 14.0916 48.5328 12.1727C48.4588 11.7022 47.9996 11.3742 47.9287 10.9006C47.1705 5.78767 48.5544 0.359039 54.5736 0.00311351C56.3303 -0.102117 62.4451 1.98082 63.3111 3.50666C63.7888 4.3485 64.0755 7.21138 62.6701 6.94211C59.1072 6.25502 56.7217 5.72577 52.974 6.13122C52.5117 6.18074 52.0216 6.19931 51.9076 6.75951H56.9837C57.859 6.75951 61.354 7.57349 62.3095 7.91394C62.8026 8.09036 63.1324 7.74991 62.9844 8.60722C59.5449 8.4958 55.8464 8.04703 52.5918 9.44906C52.2127 9.6131 51.6826 9.6131 51.5994 10.1454C55.2485 9.90403 59.3199 9.40573 62.6701 11.2256C62.6947 12.1139 59.9332 11.1266 59.4432 11.0739C58.5895 10.9842 57.6895 11.1204 56.8296 11.0739C57.5477 12.1881 61.7362 11.7456 61.9951 13.1105C62.2201 14.3082 59.9301 18.6288 58.836 19.3964C57.406 20.3992 56.2502 19.6254 57.4244 22.3428L59.9086 22.1664C58.383 30.3403 47.3339 29.7151 43.1331 35.1004C42.7786 35.5554 42.3009 36.0104 42.3718 36.6479C48.0643 30.2258 59.4031 31.5071 61.4527 21.5505C62.0259 21.6929 62.0167 22.0364 61.9982 22.5316C61.878 25.7907 60.2568 29.1426 58.3706 31.7145C59.2613 32.4109 61.2647 29.2416 61.6068 28.6412C62.8057 26.5551 63.4652 24.2834 63.6039 21.86C65.0463 21.6619 66.4178 22.1169 67.5828 22.9557C72.1072 26.2116 70.9022 37.0317 71.2997 42.0364C71.6049 45.8711 73.5527 49.1672 73.4448 52.9803L67.7585 52.6801L64.8275 39.1147C64.3344 39.1642 64.2481 40.4393 64.2203 40.8107C64.1001 42.318 64.3035 43.7231 64.0786 45.2892C63.8012 47.2298 62.8796 48.638 62.0814 50.3619C62.106 50.6405 65.0895 51.3214 64.8336 52.6677H42.0636C42.0698 51.3864 44.0084 50.9469 44.1625 50.7643C44.3967 50.4919 44.5847 47.2545 44.5262 46.6541C44.4029 45.3851 41.2099 36.4189 40.5103 35.8866C35.8502 34.2648 32.1888 31.3833 28.6753 28.016C28.5797 31.2781 32.4723 34.1998 28.3239 36.5953C24.9368 38.5514 20.2922 37.2886 19.047 33.4601C19.7127 32.513 20.1535 31.4174 20.5356 30.3372C21.3493 28.0315 24.2926 21.4762 21.9811 19.904C19.9131 18.4988 16.304 18.4803 14.988 20.9284C13.373 16.9421 9.54204 19.9875 6.67267 20.3125L11.2464 33.946C9.3263 38.474 1.96025 38.5607 0.0524722 34.1596C-0.271141 33.4106 0.940097 31.4236 1.27296 30.4641C2.47803 27.0132 3.55674 23.5189 4.77722 20.0742L2.9804 16.9204C3.31326 16.6016 4.66011 17.8706 5.11933 18.0098C8.02876 18.8919 9.40951 15.7814 12.0878 15.7133C12.8152 15.6948 13.5826 16.1497 14.3654 15.995V7.21447L14.3685 7.22066ZM15.6013 8.14297V16.0012C17.6909 15.5246 19.1179 15.9052 21.1397 16.3076L19.0162 8.4958C18.3936 8.19249 15.9126 7.134 15.6013 8.14607V8.14297ZM10.0598 33.2589L5.59704 20.6313L1.13735 33.2589H10.0598ZM20.5233 33.2589H29.1407C28.8448 31.829 28.1883 28.5669 27.4332 27.4186C26.8415 26.5211 24.2341 25.3048 23.7564 23.7108L20.5264 33.2558L20.5233 33.2589Z" fill="#F5FAFD"/>
<path d="M82.6818 29.8668V30.1701C82.2565 30.0587 81.1439 30.6127 81.1439 30.9438V39.8791C81.1439 39.9348 81.6339 40.4238 81.7541 40.3403C82.6078 38.5297 84.5772 37.2422 85.9179 35.7225C86.5651 34.989 90.2266 30.9469 89.4561 30.1732L88.2233 29.8637H95.916L92.9788 31.3895L85.7669 39.8698L96.8376 52.9741C93.925 53.0391 91.1235 52.5624 88.2233 52.9741C87.9336 51.8289 89.2989 52.8472 89.151 51.8939C88.8613 50.0276 83.3506 44.794 82.0716 42.9555L81.1439 43.2681V51.897L82.6818 52.3613C82.2719 53.4569 81.1808 52.7481 80.4257 52.7791C78.7245 52.8503 76.1818 53.33 74.6839 52.5098L75.9321 52.222L76.2219 30.9407C76.1725 30.0803 75.3897 30.1453 74.6808 30.1701C74.5021 29.0652 74.8319 29.8637 75.1431 29.8637H82.6818V29.8668Z" fill="#F5FAFD"/>
<path d="M161.767 29.8668C161.477 30.8634 162.75 34.3143 161.613 34.794C161.483 33.7572 160.253 32.0209 159.153 32.0209H151.614V39.5696C151.614 40.3557 153.43 39.712 153.907 39.7089C155.251 39.6965 157.292 40.2567 158.259 39.1394C158.897 38.4028 158.318 37.3814 159.304 37.5671V44.6547H158.691C158.971 43.5343 157.782 41.8816 156.687 41.8816H151.611V50.5104H159.458C159.689 50.5104 160.58 49.9533 160.854 49.7522L162.685 47.4309C162.562 49.1982 162.664 51.5039 161.613 52.9772H145.148C144.951 51.993 145.873 52.5779 146.36 51.8815C146.671 51.4359 146.655 50.888 146.702 50.3743C147.105 45.9979 147.136 36.5241 146.686 32.1818C146.643 31.7547 146.483 30.7581 146.23 30.4796C145.839 30.0463 145.102 30.4363 145.148 29.8699H161.767V29.8668Z" fill="#F5FAFD"/>
<path d="M99.2998 52.9772L100.986 50.5074L109.11 29.743L112.377 29.8668L120.782 50.724L122.375 52.9772H114.685C114.399 52.0115 115.468 52.5191 115.786 52.0765C116.232 51.4544 114.371 47.7992 114.18 46.7903C113.53 46.3198 105.692 46.3415 105.297 46.8181C105.153 46.9914 103.704 50.7333 103.664 51.0583C103.424 52.971 104.832 51.6958 104.838 52.9834H99.2998V52.9772ZM106.376 44.3514H113.147L109.914 35.7194C109.347 35.6792 109.19 36.2456 108.993 36.6448C108.654 37.3288 106.083 44.0697 106.379 44.3483L106.376 44.3514Z" fill="#F5FAFD"/>
<path d="M142.689 29.8668L141.222 31.3245L133.153 52.8255C132.604 53.1567 130.462 53.2 130.105 52.482L121.691 31.0181L120.227 29.8699H128.533C128.536 30.5136 127.501 29.938 127.125 30.461C126.918 30.7489 126.977 31.1512 127.054 31.4824C129.088 35.8711 130.16 41.4761 132.21 45.7534C132.386 46.1155 132.466 46.5767 132.996 46.5086L138.331 31.7888C138.454 31.3586 138.408 30.95 138.109 30.6034C137.677 30.1051 136.867 30.4394 136.845 29.8668H142.692H142.689Z" fill="#F5FAFD"/>
<path d="M183.923 29.8668C183.526 31.5164 184.65 33.7355 183.769 35.1035C183.507 33.8469 182.881 32.5037 181.473 32.1726C180.61 31.9714 177.167 31.6835 176.89 32.5285L176.841 50.6714C176.884 51.1047 176.985 51.7608 177.3 52.061C177.885 52.6243 178.899 51.9218 178.693 52.9741H170.387L171.792 52.0703C172.421 47.434 172.369 42.4201 172.245 37.7095C172.224 36.8893 171.912 36.1311 171.897 35.2583C171.879 34.1472 172.908 32.2933 171.462 32.024C169.046 31.5721 165.44 32.024 165.311 35.1035C164.17 33.6612 165.57 31.5969 165.157 29.8668H183.926H183.923Z" fill="#F5FAFD"/>
<path d="M194.692 29.8668C194.584 30.5074 193.647 29.9534 193.123 30.6065C192.803 31.0057 192.873 31.3988 192.83 31.8507C192.377 36.4375 192.414 46.3662 192.849 50.9747C192.892 51.4389 192.994 51.897 193.2 52.3148C193.709 52.6274 194.963 51.8351 194.695 52.971H186.389C186.272 51.7082 187.659 52.9648 187.927 51.5875L187.637 30.3063L186.386 30.0184C186.648 29.4861 187.209 29.8637 187.464 29.8637H194.695L194.692 29.8668Z" fill="#F5FAFD"/>
<path d="M145.071 58.6008C146.769 60.2845 143.459 61.1542 142.069 60.6837V58.217C142.864 58.2572 144.495 58.0313 145.071 58.6008Z" fill="#F5FAFD"/>
<path d="M99.2935 59.4488L99.913 62.2188H98.07C98.0484 61.832 98.5816 58.7463 99.2966 59.4488H99.2935Z" fill="#F5FAFD"/>
</g>
<defs>
<clipPath id="clip0_240_221">
<rect width="195" height="69" fill="white"/>
</clipPath>
</defs>
</svg>
