<svg width="31" height="32" viewBox="0 0 31 32" fill="none" xmlns="http://www.w3.org/2000/svg">
<path fill-rule="evenodd" clip-rule="evenodd" d="M6.34859 5.25195C4.24464 5.25195 2.53906 7.01556 2.53906 9.19108V22.3215C2.53906 24.497 4.24464 26.2606 6.34859 26.2606H24.1264C26.2303 26.2606 27.9359 24.497 27.9359 22.3215V9.19108C27.9359 7.01556 26.2303 5.25195 24.1264 5.25195H6.34859ZM6.12702 7.89796C6.19897 7.88487 6.27301 7.87804 6.34859 7.87804H24.1264C24.202 7.87804 24.276 7.88487 24.348 7.89796L15.2375 14.1782L6.12702 7.89796ZM5.07875 10.3315V22.3215C5.07875 23.0467 5.64727 23.6346 6.34859 23.6346H24.1264C24.8277 23.6346 25.3962 23.0467 25.3962 22.3215V10.3315L15.9419 16.8488C15.5153 17.1429 14.9596 17.1429 14.5331 16.8488L5.07875 10.3315Z" fill="#B8C0CC"/>
</svg>
