<svg width="36" height="36" viewBox="0 0 36 36" fill="none" xmlns="http://www.w3.org/2000/svg">
<path d="M29.9974 16.4982H32.9974C32.9974 8.80324 27.1879 2.99974 19.4824 2.99974V5.99974C25.5754 5.99974 29.9974 10.4142 29.9974 16.4982Z" fill="#21459C"/>
<path d="M19.5004 11.9997C22.6549 11.9997 24.0004 13.3452 24.0004 16.4997H27.0004C27.0004 11.6622 24.3379 8.99975 19.5004 8.99975V11.9997ZM24.6334 20.1642C24.3452 19.9023 23.9664 19.7626 23.5771 19.7746C23.1878 19.7866 22.8184 19.9495 22.5469 20.2287L18.9574 23.9202C18.0934 23.7552 16.3564 23.2137 14.5684 21.4302C12.7804 19.6407 12.2389 17.8992 12.0784 17.0412L15.7669 13.4502C16.0465 13.1789 16.2096 12.8095 16.2217 12.4201C16.2337 12.0306 16.0937 11.6518 15.8314 11.3637L10.2889 5.26925C10.0265 4.98028 9.66174 4.805 9.27215 4.78064C8.88256 4.75627 8.49882 4.88474 8.20242 5.13875L4.94742 7.93025C4.68809 8.19052 4.5333 8.53692 4.51242 8.90375C4.48992 9.27875 4.06092 18.1618 10.9489 25.0527C16.9579 31.0603 24.4849 31.4997 26.5579 31.4997C26.8609 31.4997 27.0469 31.4907 27.0964 31.4877C27.4632 31.4672 27.8094 31.3117 28.0684 31.0512L30.8584 27.7948C31.1126 27.4985 31.2413 27.1149 31.2173 26.7253C31.1932 26.3357 31.0182 25.9709 30.7294 25.7082L24.6334 20.1642V20.1642Z" fill="#21459C"/>
</svg>
