<svg width="50" height="50" viewBox="0 0 50 50" fill="none" xmlns="http://www.w3.org/2000/svg">
<path d="M21.8526 12C22.4081 12.1096 22.9862 12.1852 23.519 12.3326C24.9514 12.7347 26.2628 13.483 27.3377 14.5116C28.4126 15.5401 29.218 16.8173 29.6828 18.2306C30.1477 19.6438 30.2578 21.1497 30.0033 22.6155C29.7489 24.0813 29.1377 25.462 28.2238 26.636L28.0878 26.8211L30.2645 28.9789C30.2844 28.9725 30.3034 28.9636 30.3212 28.9525C30.4179 28.8696 30.5303 28.807 30.6516 28.7683C30.773 28.7296 30.9009 28.7157 31.0278 28.7273C31.1546 28.7389 31.2779 28.7759 31.3902 28.836C31.5025 28.8961 31.6016 28.9781 31.6816 29.0772L35.5323 32.9242L37.7997 35.1916C37.8602 35.252 37.932 35.3049 38 35.3616V35.6866L36.6282 37.0281C36.3599 37.2927 36.0954 37.561 35.8271 37.8293C35.7762 37.8945 35.7111 37.9472 35.6368 37.9834C35.5625 38.0197 35.4809 38.0386 35.3982 38.0386C35.3155 38.0386 35.2338 38.0197 35.1595 37.9834C35.0852 37.9472 35.0202 37.8945 34.9693 37.8293L29.0553 31.9152C28.5187 31.3786 28.477 31.0196 28.8889 30.3658L27.8044 29.285L26.7274 28.1967L26.4969 28.3554C21.0628 32.4556 13.1307 29.2132 12.1066 22.4753C11.7589 20.2272 12.2686 17.9304 13.5348 16.0405C14.8011 14.1506 16.7313 12.8055 18.9428 12.2721C19.3698 12.1663 19.8044 12.1058 20.2389 12.0265L21.8526 12ZM28.2238 21.0922C28.2335 19.6719 27.8218 18.2805 27.0406 17.0943C26.2594 15.908 25.1439 14.9801 23.8352 14.4279C22.5266 13.8757 21.0836 13.7241 19.6887 13.9922C18.2939 14.2604 17.0099 14.9362 15.9992 15.9342C14.9885 16.9322 14.2965 18.2075 14.0108 19.5989C13.7251 20.9902 13.8585 22.4351 14.394 23.7506C14.9296 25.0661 15.8434 26.1933 17.0196 26.9894C18.1959 27.7855 19.5819 28.2149 21.0023 28.2231C22.9053 28.2342 24.7347 27.4893 26.0888 26.1522C27.4429 24.8151 28.2108 22.9952 28.2238 21.0922Z" fill="#21459C"/>
</svg>
