<svg width="50" height="50" viewBox="0 0 50 50" fill="none" xmlns="http://www.w3.org/2000/svg">
<mask id="mask0_298_2984" style="mask-type:alpha" maskUnits="userSpaceOnUse" x="2" y="8" width="46" height="34">
<rect x="2" y="8" width="45.3333" height="34" fill="#D9D9D9"/>
</mask>
<g mask="url(#mask0_298_2984)">
<path d="M34.8361 17.5008C35.7042 17.4907 36.5486 17.7841 37.2234 18.3302C37.8983 18.8764 38.3613 19.6411 38.5324 20.4922C38.6524 21.1651 38.6138 21.8567 38.4197 22.5121C38.1612 23.5281 37.6682 24.4694 36.9803 25.2606C36.6391 25.6648 36.2095 25.985 35.7247 26.1965C35.3667 26.3463 34.9758 26.4005 34.5906 26.3538C34.2053 26.3071 33.8387 26.161 33.5269 25.9299C32.8813 25.4683 32.3554 24.859 31.9929 24.1529C31.6202 23.4774 31.3619 22.7448 31.2287 21.9849C31.0414 21.0829 31.1927 20.1436 31.6537 19.346C32.1148 18.5485 32.8533 17.9486 33.7284 17.6608C34.0852 17.5423 34.4604 17.4881 34.8361 17.5008Z" fill="#21459C"/>
<path d="M41.577 30.9411C41.5032 31.3882 41.2564 31.7883 40.8899 32.0548C40.7084 32.1783 40.5085 32.2723 40.2976 32.3332C39.7731 32.49 39.2278 32.5659 38.6805 32.5583H31.0392C30.4673 32.564 29.8981 32.4821 29.3511 32.3154C29.1602 32.2504 28.9803 32.1565 28.8179 32.037C28.6253 31.8894 28.465 31.704 28.3469 31.4921C28.2287 31.2802 28.1552 31.0463 28.1308 30.8049C27.9862 29.7048 28.257 28.5902 28.89 27.6789C29.5231 26.7676 30.4731 26.125 31.5546 25.8766L32.1469 25.7759C32.3083 26.2609 32.6066 26.6888 33.0058 27.008C33.4323 27.4048 33.8765 27.7839 34.3208 28.163L34.5104 28.0742C34.6615 28.0105 34.8264 27.9869 34.9893 28.0056C35.1522 28.0242 35.3076 28.0846 35.4404 28.1808C35.8372 27.8372 36.2578 27.4878 36.6251 27.1264C36.8561 26.8984 37.0736 26.6571 37.2766 26.4038C37.4109 26.2151 37.5317 26.0172 37.6379 25.8114C38.6119 25.9154 39.5249 26.3362 40.2365 27.0093C40.9482 27.6824 41.419 28.5706 41.577 29.5373C41.6635 30.0012 41.6635 30.4772 41.577 30.9411Z" fill="#21459C"/>
<path d="M5.04743 40.8511C5.15798 41.2577 5.40085 41.6159 5.73768 41.8691C6.07451 42.1222 6.48603 42.2559 6.90733 42.2491C7.35032 42.2511 7.77818 42.0877 8.10691 41.7907C8.43564 41.4938 8.64154 41.0847 8.68436 40.6438C8.68436 40.4246 8.68436 40.2055 8.68436 39.9922L8.75551 27.4759C8.72535 27.3274 8.72535 27.1743 8.75551 27.0257C8.82067 26.9013 8.98049 26.7414 9.09304 26.7414C9.20558 26.7414 9.37148 26.9013 9.42479 27.0317C9.45493 27.1961 9.45493 27.3647 9.42479 27.5292C9.42479 37.5004 9.42479 47.4696 9.42479 57.4369C9.38137 57.8994 9.48367 58.3639 9.71734 58.7654C9.95101 59.1668 10.3043 59.4852 10.7279 59.6759C11.0256 59.8118 11.3503 59.8785 11.6775 59.871C12.0046 59.8635 12.3259 59.7821 12.6172 59.6328C12.9084 59.4835 13.162 59.2702 13.359 59.0089C13.5561 58.7476 13.6914 58.445 13.7549 58.124C13.8082 57.8269 13.832 57.5253 13.826 57.2236C13.826 51.7819 13.826 46.3363 13.826 40.8867V40.2647H14.7499V40.857C14.7499 46.4527 14.7499 52.0504 14.7499 57.6501C14.7407 58.0085 14.8199 58.3637 14.9808 58.6842C15.1416 59.0047 15.379 59.2805 15.6719 59.4873C15.9648 59.6941 16.3042 59.8255 16.66 59.8697C17.0158 59.914 17.377 59.8698 17.7117 59.7411C18.1674 59.5604 18.5526 59.2374 18.8099 58.82C19.0671 58.4026 19.1827 57.9133 19.1393 57.425C19.1393 54.8779 19.1393 52.3367 19.1393 49.7896C19.1393 42.3656 19.1254 34.9415 19.0978 27.5174C19.0978 27.2034 18.9852 26.7296 19.459 26.7177C19.9329 26.7059 19.8501 27.2034 19.856 27.5292C19.856 29.5432 19.8561 31.5513 19.8975 33.5593C19.8773 33.9315 19.965 34.3016 20.1499 34.6252C20.3348 34.9488 20.609 35.2122 20.9399 35.3838C21.2345 35.4985 21.5519 35.5428 21.8666 35.513C22.1813 35.4831 22.4847 35.3801 22.7525 35.212C22.9572 35.0752 23.1375 34.905 23.2857 34.7085C24.1564 33.5238 23.57 30.7042 23.5167 30.4436C23.5167 30.3073 23.5167 30.1 23.5167 29.8512C23.487 28.7021 23.5522 27.5352 23.416 26.3919C23.2799 25.4123 22.8024 24.5122 22.0678 23.8502C21.3331 23.1881 20.3883 22.8065 19.3999 22.7727C18.8668 22.7727 18.3278 22.7727 17.7947 22.7727C17.463 22.7727 17.3326 22.8911 17.2023 23.1814C16.61 24.6267 16.059 26.0661 15.4785 27.5115C15.4301 27.6528 15.3489 27.7807 15.2416 27.8846C15.2936 27.5428 15.3667 27.2045 15.4607 26.8717C15.5748 26.601 15.6136 26.3045 15.573 26.0136C15.5323 25.7226 15.4137 25.4481 15.2298 25.2191C15.0278 24.9889 14.9164 24.6931 14.9164 24.3868C14.9164 24.0806 15.0278 23.7848 15.2298 23.5546C15.6444 22.9326 15.5378 22.7904 14.7915 22.7904C14.3887 22.7904 13.9859 22.7904 13.6068 22.7904C13.2277 22.7904 13.0144 23.0037 13.2691 23.3413C13.8614 24.1173 13.749 24.7985 13.2218 25.5449C13.0725 25.8347 13.0205 26.165 13.0737 26.4867C13.1211 26.9961 13.2513 27.4996 13.2928 28.0327C13.2217 27.8669 13.1389 27.7069 13.0737 27.5411C12.4814 26.078 11.9304 24.6149 11.3855 23.1399C11.3611 23.0194 11.2903 22.9133 11.1884 22.8445C11.0864 22.7758 10.9614 22.75 10.8406 22.7727C9.90737 22.7853 8.97645 22.8705 8.05644 23.0274C7.24621 23.2667 6.52845 23.7477 5.99915 24.4062C5.46984 25.0646 5.15427 25.8691 5.09472 26.7118C5.09472 26.9784 5.02962 27.2449 5 27.5055L5.04743 40.8511Z" fill="#21459C"/>
<path d="M10.5508 17.7615C10.5473 18.5104 10.7664 19.2435 11.1803 19.8677C11.5942 20.4919 12.1842 20.9791 12.8755 21.2673C13.5668 21.5555 14.3281 21.6319 15.0628 21.4866C15.7975 21.3413 16.4725 20.9811 17.0021 20.4515C17.5317 19.9219 17.892 19.2469 18.0373 18.5121C18.1825 17.7774 18.1063 17.016 17.818 16.3248C17.5298 15.6335 17.0426 15.0434 16.4184 14.6295C15.7942 14.2156 15.0611 13.9965 14.3121 14C13.316 14.0047 12.3619 14.4025 11.6576 15.1069C10.9532 15.8113 10.5555 16.7653 10.5508 17.7615Z" fill="#21459C"/>
<path d="M21.6035 35.4844L45.6112 35.3897V33.4705H21.6035" fill="#21459C"/>
</g>
</svg>
