<svg width="40" height="40" viewBox="0 0 40 40" fill="none" xmlns="http://www.w3.org/2000/svg">
<path d="M3.3335 10.964H8.27631C9.53005 10.964 10.7324 10.3434 11.619 9.23886C12.8851 7.66132 14.7579 7.11047 16.4565 7.81597L18.8605 8.81441M3.3335 26.4338H6.12953C8.12991 26.4338 9.1301 26.4338 10.0759 26.7003C10.1219 26.7132 10.1677 26.7266 10.2134 26.7405C11.1532 27.026 11.9854 27.5623 13.6499 28.635C16.9074 30.7344 18.5361 31.7841 20.3109 31.6563C20.3946 31.6502 20.4781 31.6423 20.5613 31.6323C22.3276 31.4212 23.7118 30.083 26.4801 27.4068L29.2119 24.7658" stroke="#21459C" stroke-width="2" stroke-linecap="round"/>
<path d="M37.8376 11.3674H33.4955C31.6568 11.3674 30.3585 10.3683 29.0395 9.03619C28.1852 8.17339 27.0947 7.66489 25.9487 7.59487C24.6673 7.51657 23.1823 7.40633 21.9379 7.7482C20.5528 8.1287 19.6382 9.17086 18.6707 10.26L16.1741 13.0707C15.1549 14.2181 15.1549 16.0785 16.1741 17.226C17.0538 18.2163 18.4322 18.37 19.4673 17.5931C20.2122 17.034 21.0585 16.1312 21.9363 15.8468C22.9242 15.5268 23.537 16.2457 24.0969 17.0021L28.0997 22.4098C29.5853 24.4167 30.3281 25.4202 31.3435 25.9556C32.3589 26.491 33.5192 26.491 35.8398 26.491H37.8376" stroke="#21459C" stroke-width="2" stroke-linecap="round"/>
</svg>
