<svg width="50" height="50" viewBox="0 0 50 50" fill="none" xmlns="http://www.w3.org/2000/svg">
<path d="M16.8486 42.0238V30.486H32.9639V42.0238H16.8486Z" fill="#21459C"/>
<path d="M34.9071 22.0122C35.6068 22.0442 36.0001 22.0442 36.3888 22.0808C37.8018 22.2179 38.3369 22.9954 37.7881 24.3261C37.2447 25.7172 36.5886 27.0615 35.8263 28.3458C35.6259 28.6315 35.3668 28.871 35.0663 29.0485C34.7658 29.2259 34.4309 29.3372 34.084 29.3748C27.9744 29.4479 21.8649 29.4159 15.7554 29.4159H15.5816C14.2417 29.297 11.3013 23.8002 12.1518 22.8124C12.5497 22.3551 13.4414 22.1219 14.1137 22.1173C20.1683 22.0625 26.2184 22.0853 32.2685 22.0853H34.0977C34.9071 19.0946 34.555 18.0702 32.2685 16.2913C32.1424 16.1893 32.0408 16.0604 31.9712 15.914C31.9015 15.7676 31.8656 15.6074 31.8661 15.4453C31.9072 15.2029 32.3234 14.8233 32.52 14.8508C32.8726 14.9471 33.1841 15.1558 33.4072 15.4453C35.0535 17.2653 35.2684 19.4833 34.9071 22.0122Z" fill="#21459C"/>
<path d="M31.9027 21.0198H18.2523C17.7675 17.8781 18.577 16.1998 21.1653 15.0748C24.4853 18.0382 25.8664 18.0473 28.6605 15.1206C31.0842 15.8522 32.0765 17.6449 31.9027 21.0198Z" fill="#21459C"/>
<path d="M28.7428 12.0795C28.5828 14.4117 26.6987 16.5382 24.8649 16.4559C22.8528 16.369 21.1059 13.991 21.2385 11.5261C21.2563 11.035 21.3728 10.5525 21.5812 10.1074C21.7896 9.66229 22.0855 9.26373 22.4512 8.93551C22.817 8.60729 23.2452 8.35613 23.7102 8.19703C24.1751 8.03792 24.6674 7.97413 25.1576 8.00947C25.662 8.03609 26.1561 8.16315 26.6108 8.38319C27.0656 8.60323 27.4718 8.91182 27.8057 9.29088C28.1396 9.66995 28.3945 10.1119 28.5554 10.5907C28.7163 11.0695 28.7801 11.5757 28.7428 12.0795Z" fill="#21459C"/>
</svg>
