<svg width="50" height="50" viewBox="0 0 50 50" fill="none" xmlns="http://www.w3.org/2000/svg">
<path d="M45.9997 22.1091V29.2277H45.431C43.6871 29.2277 41.9432 29.2277 40.1994 29.2277C39.9684 29.2262 39.7458 29.3139 39.5779 29.4726C39.2181 29.9195 38.7674 30.2849 38.2557 30.5446C37.7441 30.8043 37.1831 30.9524 36.6099 30.9792C35.48 31.0394 34.3727 30.9792 33.3971 30.9792C33.4348 29.9547 33.48 28.9565 33.5139 27.966C33.5346 27.6285 33.5346 27.2902 33.5139 26.9528C33.4273 25.9584 33.5139 25.0206 34.2672 24.4179C35.0016 25.0243 35.7097 25.7061 36.5271 26.2522C37.3132 26.753 38.232 27.005 39.1636 26.9754C39.495 26.9754 39.834 26.9302 39.7625 26.5272C39.714 26.4121 39.6376 26.3109 39.5403 26.2327C39.443 26.1544 39.3278 26.1016 39.205 26.0789C36.4404 25.9546 34.4367 23.6458 34.4555 21.3671C34.4555 21.0243 34.3274 20.659 33.932 20.7418C33.7436 20.7795 33.5177 21.1524 33.4988 21.3859C33.4423 22.1128 33.4988 22.8473 33.4725 23.5818C33.4837 23.733 33.4622 23.8849 33.4094 24.0271C33.3566 24.1693 33.2737 24.2985 33.1665 24.4057C33.0592 24.513 32.9301 24.5958 32.7879 24.6486C32.6457 24.7015 32.4938 24.723 32.3425 24.7117C32.1973 24.7133 32.0533 24.6845 31.9198 24.6272C31.7864 24.5699 31.6663 24.4853 31.5674 24.379C31.4685 24.2726 31.3929 24.1467 31.3454 24.0095C31.2979 23.8722 31.2796 23.7265 31.2917 23.5818C31.2917 22.1769 31.2917 20.7682 31.2917 19.3633C31.2825 19.222 31.3033 19.0805 31.3526 18.9478C31.4019 18.8151 31.4786 18.6943 31.5778 18.5934C31.677 18.4924 31.7964 18.4135 31.9282 18.3619C32.06 18.3102 32.2011 18.2869 32.3425 18.2936C33.3934 18.2936 34.4442 18.2559 35.4951 18.2936C35.8408 18.3325 36.164 18.4848 36.4141 18.7268C37.4461 19.7098 38.4254 20.7456 39.4574 21.7399C39.6835 21.9448 39.9737 22.0646 40.2785 22.0789C41.9847 22.1091 43.6947 22.0789 45.4009 22.0789L45.9997 22.1091Z" fill="#21459C"/>
<path d="M29.4871 27.8755C28.9071 27.8755 28.327 27.8755 27.7432 27.8755C26.9899 27.8755 26.538 27.4349 26.5342 26.7456C26.5304 26.0563 26.9824 25.642 27.7432 25.6157C28.941 25.5956 30.1412 25.5956 31.344 25.6157C32.0973 25.6157 32.5342 26.0639 32.5191 26.7456C32.504 27.4273 32.0408 27.8266 31.2875 27.8379C30.6886 27.8831 30.0897 27.8755 29.4871 27.8755Z" fill="#21459C"/>
<path d="M30.1281 28.7796C30.5763 28.7796 31.0283 28.7796 31.4765 28.7796C31.6171 28.7805 31.7561 28.8093 31.8856 28.8643C32.015 28.9192 32.1323 28.9993 32.2307 29.0997C32.3291 29.2002 32.4066 29.3192 32.4588 29.4497C32.511 29.5803 32.5369 29.7199 32.5349 29.8605C32.5502 29.9967 32.5367 30.1346 32.4953 30.2653C32.454 30.396 32.3856 30.5165 32.2947 30.6191C32.2039 30.7217 32.0924 30.8041 31.9677 30.861C31.843 30.9178 31.7077 30.9478 31.5706 30.949C30.5989 30.9942 29.6234 30.9942 28.6516 30.949C28.5113 30.9441 28.3734 30.9104 28.2466 30.8499C28.1198 30.7895 28.0068 30.7036 27.9146 30.5976C27.8225 30.4917 27.753 30.3679 27.7107 30.2339C27.6684 30.1 27.654 29.9588 27.6686 29.8191C27.6774 29.5446 27.7921 29.2842 27.9887 29.0925C28.1853 28.9008 28.4486 28.7927 28.7232 28.7909C29.1902 28.7645 29.661 28.7796 30.1281 28.7796Z" fill="#21459C"/>
<path d="M30.2256 22.5837L30.4629 24.7344C29.4987 24.7344 28.4591 24.7645 27.4196 24.7344C27.1609 24.6902 26.9271 24.5532 26.7623 24.3489C26.5975 24.1446 26.5129 23.8872 26.5245 23.625C26.536 23.3628 26.6429 23.1138 26.8251 22.9249C27.0073 22.7359 27.2521 22.6199 27.5138 22.5988C28.4102 22.5498 29.3066 22.5837 30.2256 22.5837Z" fill="#21459C"/>
<path d="M30.2633 19.4237V21.5781C29.2878 21.5781 28.3424 21.6082 27.397 21.5781C27.1345 21.5388 26.8977 21.3989 26.7367 21.1879C26.5757 20.977 26.5032 20.7117 26.5345 20.4481C26.5308 20.1936 26.6242 19.9473 26.7955 19.7591C26.9669 19.5709 27.2035 19.455 27.4573 19.435C28.3725 19.4048 29.284 19.4237 30.2633 19.4237Z" fill="#21459C"/>
<path d="M4 21.9208V29.0395H4.57628C6.32015 29.0395 8.06778 29.0395 9.81166 29.0395C10.0418 29.04 10.263 29.129 10.4294 29.2881C10.7907 29.7334 11.2417 30.0977 11.753 30.3572C12.2643 30.6168 12.8246 30.7658 13.3973 30.7947C14.5273 30.8512 15.6346 30.7947 16.6139 30.7947C16.5725 29.7702 16.531 28.772 16.4971 27.7815C16.4783 27.444 16.4783 27.1057 16.4971 26.7683C16.5875 25.7739 16.4971 24.8361 15.7438 24.2297C15.0131 24.8361 14.3013 25.5178 13.484 26.0639C12.7044 26.561 11.7943 26.8142 10.87 26.7909C10.5386 26.7909 10.1958 26.7419 10.2674 26.3427C10.3154 26.2269 10.3915 26.125 10.4888 26.046C10.5862 25.9671 10.7017 25.9137 10.8248 25.8907C13.5894 25.7664 15.5932 23.4575 15.5781 21.1788C15.5781 20.836 15.7024 20.4745 16.1017 20.5536C16.2862 20.5912 16.516 20.9641 16.531 21.1976C16.5875 21.9283 16.531 22.6628 16.5574 23.3935C16.5468 23.5446 16.5687 23.6963 16.6218 23.8382C16.6748 23.9801 16.7577 24.1089 16.8648 24.2161C16.9719 24.3232 17.1008 24.4061 17.2427 24.4591C17.3846 24.5121 17.5362 24.5341 17.6874 24.5234C17.8324 24.525 17.9763 24.4963 18.1096 24.4389C18.2429 24.3816 18.3627 24.297 18.4613 24.1905C18.5599 24.0841 18.6352 23.9582 18.6822 23.8209C18.7293 23.6837 18.747 23.5381 18.7344 23.3935C18.7344 21.9848 18.7344 20.5799 18.7344 19.1713C18.7442 19.0299 18.7239 18.888 18.6748 18.7551C18.6257 18.6221 18.5489 18.5011 18.4496 18.4C18.3503 18.2989 18.2307 18.22 18.0986 18.1686C17.9666 18.1172 17.8251 18.0943 17.6836 18.1016C16.6327 18.1016 15.5819 18.0639 14.5348 18.1016C14.1897 18.1429 13.8673 18.2948 13.6158 18.5347C12.58 19.5178 11.6007 20.5536 10.5687 21.5479C10.3418 21.7509 10.0518 21.8693 9.74763 21.8831C8.04142 21.917 6.3352 21.8831 4.62522 21.8831L4 21.9208Z" fill="#21459C"/>
<path d="M20.4894 27.6872C21.0695 27.6872 21.6532 27.6872 22.2333 27.6872C22.9866 27.6684 23.4386 27.2428 23.4423 26.5573C23.4461 25.8718 22.9941 25.4537 22.2371 25.4273C21.0356 25.4273 19.834 25.4085 18.6363 25.4273C17.883 25.4273 17.4423 25.8755 17.4574 26.5573C17.4725 27.239 17.9395 27.6382 18.689 27.6533C19.2879 27.6985 19.8906 27.6872 20.4894 27.6872Z" fill="#21459C"/>
<path d="M19.8499 28.6101C19.4017 28.6101 18.9498 28.6101 18.5015 28.6101C18.3611 28.6106 18.2222 28.6389 18.0927 28.6935C17.9633 28.748 17.846 28.8277 17.7476 28.9278C17.6491 29.028 17.5716 29.1467 17.5193 29.2771C17.4671 29.4075 17.4412 29.5469 17.4432 29.6873C17.4285 29.8236 17.4424 29.9615 17.4839 30.0921C17.5255 30.2227 17.5938 30.3432 17.6845 30.446C17.7752 30.5488 17.8863 30.6315 18.0108 30.6889C18.1353 30.7464 18.2703 30.7773 18.4074 30.7796C19.3791 30.8198 20.3534 30.8198 21.3302 30.7796C21.4702 30.7742 21.6077 30.7401 21.734 30.6794C21.8603 30.6187 21.9729 30.5328 22.0647 30.4269C22.1565 30.3209 22.2255 30.1973 22.2676 30.0636C22.3097 29.9299 22.324 29.7891 22.3094 29.6497C22.3007 29.3752 22.186 29.1147 21.9893 28.923C21.7927 28.7313 21.5294 28.6232 21.2548 28.6214C20.7878 28.5762 20.3208 28.6101 19.8499 28.6101Z" fill="#21459C"/>
<path d="M19.751 22.3803L19.5137 24.531C20.4817 24.531 21.5212 24.5611 22.557 24.531C22.8126 24.4842 23.0427 24.3465 23.2049 24.1434C23.367 23.9403 23.4503 23.6854 23.4392 23.4257C23.4282 23.166 23.3237 22.9191 23.145 22.7305C22.9662 22.5418 22.7253 22.4241 22.4666 22.3991C21.5702 22.3652 20.67 22.3803 19.751 22.3803Z" fill="#21459C"/>
<path d="M19.7139 19.2352V21.3934C20.6894 21.3934 21.6348 21.4198 22.5802 21.3934C22.843 21.355 23.0805 21.2153 23.2416 21.0042C23.4028 20.793 23.475 20.5271 23.4427 20.2635C23.4463 20.0089 23.353 19.7626 23.1816 19.5744C23.0102 19.3862 22.7736 19.2703 22.5199 19.2503C21.6084 19.2164 20.6931 19.2352 19.7139 19.2352Z" fill="#21459C"/>
<path d="M28.6668 13.5064C28.5482 13.3052 28.4582 13.0885 28.3994 12.8624C28.4222 12.6971 28.4914 12.5417 28.599 12.4142C29.6034 10.7946 30.6078 9.17748 31.6122 7.56291C31.6224 7.54741 31.6313 7.53102 31.6386 7.51395C31.8307 7.2164 32.0152 6.81338 32.4484 7.09587C32.8815 7.37836 32.5877 7.67967 32.4107 7.96216C31.7151 9.06951 31.0209 10.1769 30.3278 11.2842C29.9512 11.868 29.6009 12.4594 29.2167 13.0319C29.0531 13.2115 28.8685 13.3709 28.6668 13.5064Z" fill="#21459C"/>
<path d="M30.3651 15.1297C30.2559 14.9979 30.0751 14.8774 30.0525 14.7305C30.0481 14.6436 30.0627 14.5568 30.0952 14.4762C30.1277 14.3955 30.1774 14.3229 30.2408 14.2634C30.4269 14.1385 30.6298 14.0409 30.8435 13.9734L34.7757 12.2107C34.8435 12.1806 34.9188 12.1128 34.9791 12.1241C35.2201 12.1806 35.4574 12.2634 35.6947 12.335C35.5779 12.5384 35.5064 12.8359 35.3181 12.9263C34.4668 13.3519 33.5892 13.7173 32.7192 14.1052C32.0902 14.3877 31.4574 14.674 30.836 14.9527C30.7418 15.013 30.5798 15.0506 30.3651 15.1297Z" fill="#21459C"/>
<path d="M20.3125 8.29727C20.4816 8.21523 20.664 8.1642 20.8511 8.14661C20.946 8.15321 21.0384 8.17937 21.1227 8.22345C21.207 8.26753 21.2812 8.32857 21.3407 8.40273C21.6044 8.89614 21.8116 9.41968 22.0375 9.92816C22.4895 10.9526 22.9377 11.9734 23.3935 12.9941C23.5253 13.2841 23.6308 13.5967 23.2579 13.7474C22.885 13.898 22.723 13.6495 22.5874 13.3444C21.9396 11.8604 21.2767 10.3801 20.6214 8.89614C20.576 8.77268 20.537 8.64696 20.5046 8.51949L20.3125 8.29727Z" fill="#21459C"/>
<path d="M20.3089 14.8737C20.1959 15.2842 20.0264 15.465 19.6723 15.3294C18.0753 14.7117 16.4746 14.1016 14.8852 13.4462C14.7232 13.3822 14.6441 13.0959 14.5273 12.9114C14.7496 12.8323 15.0094 12.6326 15.1789 12.6967C16.7722 13.2692 18.3541 13.8831 19.9284 14.5046C20.0904 14.5799 20.1959 14.7682 20.3089 14.8737Z" fill="#21459C"/>
<path d="M27.1906 8.92635C26.9345 10.1203 26.7235 11.1862 26.4637 12.2296C26.426 12.3802 26.151 12.4706 25.9853 12.6062C25.8648 12.4254 25.6087 12.2296 25.6463 12.0714C25.8422 11.0092 26.0757 9.95585 26.3469 8.91128C26.3921 8.74179 26.6783 8.63633 26.8516 8.50073L27.1906 8.92635Z" fill="#21459C"/>
<path d="M22.3916 36.5422C22.5225 36.7365 22.6252 36.9482 22.6967 37.1712C22.6813 37.3372 22.6215 37.496 22.5234 37.6308C21.617 39.3031 20.7055 40.9741 19.789 42.644C19.7788 42.6595 19.7699 42.6759 19.7626 42.6929C19.5894 43.0055 19.4349 43.4161 18.9792 43.1562C18.5235 42.8963 18.8059 42.5837 18.9792 42.2899C19.612 41.1449 20.2397 40.0011 20.8624 38.8586C21.1939 38.2522 21.5178 37.6421 21.8681 37.0469C22.0221 36.8587 22.1978 36.6893 22.3916 36.5422Z" fill="#21459C"/>
<path d="M20.5915 35.0132C20.7045 35.1375 20.8929 35.2467 20.923 35.3898C20.932 35.4762 20.9225 35.5635 20.8952 35.646C20.868 35.7284 20.8235 35.8042 20.7648 35.8682C20.5841 36.0005 20.3865 36.1082 20.1772 36.1883L16.3505 38.1733C16.2865 38.2072 16.2112 38.2787 16.1547 38.2712C15.9098 38.226 15.6688 38.1582 15.4277 38.1017C15.5332 37.8908 15.5859 37.5895 15.7554 37.4915C16.5803 37.017 17.4352 36.5989 18.2827 36.162L20.1245 35.2128C20.2563 35.1563 20.3957 35.1036 20.5915 35.0132Z" fill="#21459C"/>
<path d="M31.0284 41.2693C30.8645 41.3628 30.6842 41.4241 30.4973 41.4501C30.4017 41.4495 30.3074 41.4288 30.2204 41.3892C30.1334 41.3496 30.0558 41.292 29.9926 41.2203C29.7026 40.7458 29.4691 40.2373 29.2129 39.7401C28.7045 38.7457 28.196 37.7476 27.6838 36.757C27.5369 36.4708 27.4163 36.1695 27.7779 35.9849C28.1395 35.8003 28.3165 36.0527 28.4672 36.3616C29.2017 37.8079 29.9474 39.2467 30.6819 40.693C30.7361 40.8091 30.7826 40.9287 30.8212 41.0508L31.0284 41.2693Z" fill="#21459C"/>
<path d="M30.6592 34.7043C30.7496 34.2862 30.9078 34.1016 31.2656 34.2146C32.8965 34.7382 34.5311 35.258 36.162 35.8116C36.3277 35.8681 36.4219 36.1469 36.5386 36.3239C36.3277 36.4143 36.0754 36.629 35.9021 36.5762C34.2787 36.0941 32.6667 35.5706 31.0584 35.0395C30.8927 34.9868 30.7722 34.8022 30.6592 34.7043Z" fill="#21459C"/>
<path d="M24.124 41.0394C24.3161 39.8304 24.463 38.7607 24.6664 37.6985C24.6928 37.5479 24.964 37.4424 25.1184 37.3219C25.2502 37.4914 25.495 37.6985 25.495 37.8341C25.3594 38.9076 25.1824 39.9735 24.9715 41.0319C24.9376 41.2014 24.6589 41.3219 24.4931 41.465L24.124 41.0394Z" fill="#21459C"/>
</svg>
