<svg width="50" height="50" viewBox="0 0 50 50" fill="none" xmlns="http://www.w3.org/2000/svg">
<path d="M23.7652 19.3864C23.6109 19.3973 23.4561 19.3973 23.3018 19.3864C23.0095 19.3471 22.8028 19.1974 22.8028 18.8766C22.8028 17.1681 22.8028 15.4619 22.8028 13.7581C22.8028 13.3196 23.12 13.2198 23.4087 13.1877C23.3727 12.7639 23.3799 12.3376 23.4301 11.9152C23.5288 11.6406 23.7139 11.4055 23.9577 11.2451C24.2005 11.0768 24.491 10.9911 24.7863 11.0007C25.0816 11.0104 25.366 11.1148 25.5973 11.2986C26.1462 11.7334 26.2639 12.3144 25.9538 13.1521C26.6096 13.3268 26.6453 13.3731 26.6453 14.0717V18.3847C26.6453 19.3293 26.6453 19.3365 25.6401 19.4149V19.8497C25.6401 22.9972 25.6044 26.141 25.665 29.2849C25.665 30.176 25.9787 31.0671 26.1605 31.9511C26.2888 32.5785 26.41 33.2129 26.5847 33.8296C26.6655 34.0697 26.8171 34.2797 27.0195 34.432C27.4401 34.7492 27.8999 35.0094 28.4453 35.3552H20.96C21.4483 35.0451 21.8333 34.7706 22.2467 34.5425C22.4114 34.4563 22.5535 34.3327 22.6619 34.1817C22.7702 34.0306 22.8416 33.8564 22.8705 33.6728C23.1307 32.4038 23.4266 31.1384 23.701 29.8695C23.7492 29.6517 23.7743 29.4295 23.7759 29.2065C23.7759 26.0626 23.7759 22.9176 23.7759 19.7713C23.7866 19.6608 23.7759 19.5539 23.7652 19.3864Z" fill="white"/>
<path d="M11.336 17.4438C11.0621 17.3368 10.8238 17.1552 10.648 16.9195C10.4722 16.6838 10.366 16.4036 10.3415 16.1106C10.3087 15.7237 10.4293 15.3394 10.6774 15.0406C10.9255 14.7418 11.2811 14.5526 11.6675 14.5138C11.8623 14.4853 12.0609 14.4975 12.2508 14.5496C12.4407 14.6017 12.6177 14.6925 12.7708 14.8164C12.9238 14.9403 13.0495 15.0946 13.14 15.2695C13.2305 15.4444 13.2837 15.6361 13.2964 15.8326C13.2964 16.6132 13.7883 16.9412 14.3444 17.237C14.612 17.3784 14.9073 17.4597 15.2096 17.4751C15.5119 17.4905 15.8139 17.4396 16.0945 17.3261C17.0747 16.9483 18.0514 16.5134 19.0209 16.0786C19.9905 15.6437 20.9671 15.2195 22.065 15.2587C22.1755 15.2587 22.2824 15.2801 22.4214 15.2944V16.5027C21.7412 16.5812 21.0663 16.7002 20.4004 16.8592C19.7929 17.0646 19.2058 17.3259 18.6467 17.6398C16.7539 18.62 14.7864 18.9658 12.637 18.3242C12.8651 18.8517 13.0754 19.3294 13.2857 19.807C14.4085 22.3449 15.542 24.8828 16.647 27.4278C16.8324 27.8556 17.0034 28.1978 17.5738 28.0053V28.9107H6V28.0944C6.02139 28.0944 6.04634 28.0516 6.06772 28.0552C6.55249 28.1443 6.75566 27.8877 6.94101 27.4635C8.36679 24.1984 9.79257 20.9441 11.2433 17.6861C11.2718 17.6184 11.2932 17.5543 11.336 17.4438ZM16.6078 28.0124C16.2228 27.1569 15.8664 26.3549 15.5099 25.5565C14.4477 23.1588 13.3784 20.7623 12.3019 18.367C12.2159 18.2148 12.1118 18.0735 11.9918 17.9463L11.9063 18.0069V28.0124H16.6078ZM11.639 28.0124V17.7467L11.5392 17.7218L6.98022 28.0089L11.639 28.0124Z" fill="white"/>
<path d="M36.8251 18.3241C35.8626 18.6173 34.8512 18.715 33.8503 18.6116C32.8495 18.5081 31.8794 18.2056 30.9973 17.7217C29.7675 17.0836 28.5378 16.4349 27.0479 16.631V15.3157C27.6791 15.1963 28.3315 15.2619 28.9263 15.5046C29.9386 15.9038 30.9153 16.385 31.924 16.7949C32.5239 17.0523 33.1453 17.2563 33.7811 17.4045C34.7078 17.6041 35.4457 17.2013 36.016 16.4813C36.0897 16.368 36.127 16.2349 36.1229 16.0999C36.1514 15.2444 36.6148 14.642 37.342 14.5279C37.6991 14.4609 38.0685 14.5253 38.3817 14.7095C38.695 14.8936 38.9311 15.1849 39.0462 15.5295C39.1614 15.8742 39.1479 16.2489 39.0083 16.5844C38.8686 16.9198 38.6123 17.1934 38.2866 17.3545L38.1048 17.465L38.9923 19.4932C40.1543 22.1238 41.3235 24.7508 42.4783 27.385C42.6673 27.8056 42.7991 28.2654 43.4586 27.9838V28.9106H31.8777V28.0907C31.8777 28.0907 31.9133 28.048 31.9311 28.0515C32.4337 28.1478 32.6155 27.859 32.7973 27.4456C34.0591 24.5548 35.3494 21.6747 36.6291 18.791C36.679 18.6556 36.7431 18.5166 36.8251 18.3241ZM37.5166 17.9391C37.3847 18.0282 37.2671 18.0603 37.235 18.128C35.7665 21.4109 34.3051 24.6938 32.8294 28.0088H37.5166V17.9391ZM42.4641 28.0194L37.9123 17.7146L37.816 17.7573V28.0194H42.4641Z" fill="white"/>
<path d="M34.697 36.9307V38H14.7646V36.9307H34.697Z" fill="white"/>
<path d="M43.0098 29.3276C42.5429 30.0655 42.1116 30.7534 41.6589 31.4663C41.6155 31.5067 41.5644 31.5379 41.5086 31.5581C41.4529 31.5783 41.3937 31.5871 41.3345 31.5839C38.8845 31.5839 36.4381 31.5839 33.9953 31.5839C33.8571 31.5729 33.729 31.5075 33.6389 31.4022C33.1969 30.7427 32.7798 30.0655 32.3271 29.3455L43.0098 29.3276Z" fill="white"/>
<path d="M17.1393 29.3206C16.6688 30.062 16.2375 30.7463 15.7884 31.4414C15.7016 31.523 15.5866 31.5677 15.4676 31.5662C13.02 31.5662 10.5736 31.5662 8.12837 31.5662C8.06167 31.5661 7.99567 31.5525 7.93439 31.5262C7.87312 31.4998 7.81784 31.4613 7.77192 31.4129C7.32637 30.7428 6.9022 30.0548 6.44238 29.3206H17.1393Z" fill="white"/>
<path d="M18.8252 36.4923V35.7794H30.5879V36.4923H18.8252Z" fill="white"/>
</svg>
