<svg width="34" height="34" viewBox="0 0 34 34" fill="none" xmlns="http://www.w3.org/2000/svg">
<path d="M14.1668 16.44L7.18972 24.6305C6.25349 25.7295 4.57884 25.7964 3.55795 24.7755C2.53705 23.7546 2.60393 22.08 3.70299 21.1437L11.8935 14.1666" stroke="#21459C" stroke-width="2" stroke-linejoin="round"/>
<path d="M25.5002 14.2342L18.4843 21.25M14.0994 2.83337L7.0835 9.84925M13.2224 3.71031L7.96053 8.97222C7.96053 8.97222 10.5915 12.4802 13.2224 15.1111C15.8534 17.7421 19.3613 20.373 19.3613 20.373L24.6232 15.1111C24.6232 15.1111 21.9923 11.6032 19.3613 8.97222C16.7304 6.34126 13.2224 3.71031 13.2224 3.71031Z" stroke="#21459C" stroke-width="2" stroke-linecap="round" stroke-linejoin="round"/>
<path d="M18.1108 29.4508L17.1576 31.1666H28.1761L27.2229 29.4508L27.2229 29.4508C26.7022 28.5136 26.4419 28.0451 26.0496 27.7061C25.7282 27.4284 25.3451 27.2153 24.9255 27.0808C24.4132 26.9166 23.8311 26.9166 22.6668 26.9166C21.5026 26.9166 20.9205 26.9166 20.4082 27.0808C19.9885 27.2153 19.6054 27.4284 19.2841 27.7061C18.8918 28.0451 18.6314 28.5137 18.1108 29.4508Z" fill="#21459C"/>
<path d="M18.1108 29.4508L18.9849 29.9365V29.9365L18.1108 29.4508ZM27.2229 29.4508L26.3431 29.9264L26.3487 29.9365L27.2229 29.4508ZM27.2229 29.4508L28.1026 28.9753L28.097 28.9652L27.2229 29.4508ZM26.0496 27.7061L26.7034 26.9494V26.9494L26.0496 27.7061ZM24.9255 27.0808L25.2307 26.1286L25.2307 26.1286L24.9255 27.0808ZM19.2841 27.7061L18.6303 26.9494L18.6303 26.9494L19.2841 27.7061ZM20.4082 27.0808L20.1029 26.1286L20.4082 27.0808ZM15.5835 30.1666C15.0312 30.1666 14.5835 30.6143 14.5835 31.1666C14.5835 31.7189 15.0312 32.1666 15.5835 32.1666V31.1666V30.1666ZM29.7502 32.1666C30.3024 32.1666 30.7502 31.7189 30.7502 31.1666C30.7502 30.6143 30.3024 30.1666 29.7502 30.1666L29.7502 31.1666L29.7502 32.1666ZM17.1576 31.1666L18.0317 31.6523L18.9849 29.9365L18.1108 29.4508L17.2366 28.9652L16.2834 30.681L17.1576 31.1666ZM28.1761 31.1666L29.0502 30.681L28.097 28.9652L27.2229 29.4508L26.3487 29.9365L27.3019 31.6523L28.1761 31.1666ZM27.2229 29.4508L28.1026 28.9753L28.1026 28.9753L27.2229 29.4508L26.3432 29.9263L26.3432 29.9264L27.2229 29.4508ZM27.2229 29.4508L28.097 28.9652C27.6117 28.0917 27.2612 27.4314 26.7034 26.9494L26.0496 27.7061L25.3958 28.4628C25.6226 28.6587 25.7927 28.9356 26.3487 29.9365L27.2229 29.4508ZM22.6668 26.9166V27.9166C23.8995 27.9166 24.2926 27.9281 24.6203 28.0331L24.9255 27.0808L25.2307 26.1286C24.5337 25.9052 23.7626 25.9166 22.6668 25.9166V26.9166ZM26.0496 27.7061L26.7034 26.9494C26.2764 26.5805 25.7736 26.3026 25.2307 26.1286L24.9255 27.0808L24.6203 28.0331C24.9166 28.1281 25.1801 28.2764 25.3958 28.4628L26.0496 27.7061ZM18.1108 29.4508L18.9849 29.9365C19.541 28.9356 19.7111 28.6587 19.9379 28.4628L19.2841 27.7061L18.6303 26.9494C18.0724 27.4314 17.7219 28.0917 17.2366 28.9652L18.1108 29.4508ZM22.6668 26.9166V25.9166C21.571 25.9166 20.7999 25.9052 20.1029 26.1286L20.4082 27.0808L20.7134 28.0331C21.0411 27.9281 21.4342 27.9166 22.6668 27.9166V26.9166ZM19.2841 27.7061L19.9379 28.4628C20.1535 28.2764 20.417 28.1281 20.7134 28.0331L20.4082 27.0808L20.1029 26.1286C19.5601 26.3026 19.0573 26.5805 18.6303 26.9494L19.2841 27.7061ZM15.5835 31.1666V32.1666H17.1576V31.1666V30.1666H15.5835V31.1666ZM17.1576 31.1666V32.1666H28.1761V31.1666V30.1666H17.1576V31.1666ZM28.1761 31.1666L28.1761 32.1666L29.7502 32.1666L29.7502 31.1666L29.7502 30.1666L28.1761 30.1666L28.1761 31.1666Z" fill="#21459C"/>
<path d="M28.3335 16.4848L31.1668 14.1666M28.3335 21.1212L31.1668 22.6666" stroke="#21459C" stroke-width="2" stroke-linecap="round" stroke-linejoin="round"/>
</svg>
