<svg width="24" height="24" viewBox="0 0 24 24" fill="none" xmlns="http://www.w3.org/2000/svg">
<path d="M11.72 9.36434C11.6319 9.37059 11.5434 9.37059 11.4553 9.36434C11.2883 9.34194 11.1701 9.2564 11.1701 9.0731C11.1701 8.09685 11.1701 7.12195 11.1701 6.14842C11.1701 5.89791 11.3514 5.84088 11.5164 5.82255C11.4958 5.5804 11.4999 5.33678 11.5286 5.09545C11.585 4.93855 11.6907 4.80418 11.83 4.71256C11.9688 4.61638 12.1348 4.56743 12.3035 4.57293C12.4722 4.57843 12.6347 4.6381 12.7669 4.74311C13.0805 4.99158 13.1478 5.32356 12.9706 5.80218C13.3453 5.90198 13.3657 5.92846 13.3657 6.32765V8.79203C13.3657 9.33176 13.3657 9.33583 12.7913 9.38064V9.62911C12.7913 11.4275 12.771 13.2239 12.8056 15.0202C12.8056 15.5294 12.9848 16.0386 13.0887 16.5437C13.162 16.9021 13.2313 17.2646 13.3311 17.617C13.3772 17.7542 13.4639 17.8742 13.5795 17.9612C13.8199 18.1425 14.0826 18.2911 14.3942 18.4887H10.1172C10.3962 18.3115 10.6162 18.1547 10.8524 18.0243C10.9465 17.9751 11.0277 17.9045 11.0896 17.8182C11.1515 17.7319 11.1923 17.6323 11.2088 17.5274C11.3575 16.8023 11.5266 16.0793 11.6834 15.3542C11.7109 15.2298 11.7252 15.1028 11.7262 14.9754C11.7262 13.1791 11.7262 11.382 11.7262 9.5843C11.7323 9.52117 11.7262 9.46007 11.72 9.36434Z" fill="white"/>
<path d="M4.61823 8.25449C4.46176 8.19337 4.32557 8.08959 4.22512 7.95494C4.12468 7.82029 4.06401 7.66017 4.05 7.49277C4.03124 7.27168 4.10018 7.05207 4.24193 6.88136C4.38368 6.71066 4.58687 6.60253 4.80764 6.58034C4.91897 6.56407 5.03246 6.57104 5.14096 6.6008C5.24946 6.63057 5.35061 6.68249 5.43805 6.75328C5.5255 6.82408 5.59733 6.91222 5.64902 7.01215C5.70071 7.11208 5.73114 7.22164 5.7384 7.33391C5.7384 7.77994 6.01946 7.96732 6.33718 8.13636C6.4901 8.21717 6.65882 8.26359 6.83155 8.27239C7.00428 8.28118 7.17685 8.25214 7.33719 8.18728C7.89727 7.97139 8.45532 7.72292 9.00929 7.47444C9.56327 7.22597 10.1213 6.9836 10.7486 7.006C10.8117 7.006 10.8728 7.01822 10.9523 7.02637V7.71681C10.5636 7.76164 10.178 7.82965 9.79748 7.92048C9.4504 8.03785 9.11495 8.18717 8.79544 8.36651C7.71397 8.9266 6.58973 9.12416 5.36162 8.75755C5.49196 9.05898 5.61213 9.3319 5.73229 9.60481C6.37384 11.0549 7.0215 12.5051 7.65287 13.9592C7.75878 14.2036 7.85654 14.3992 8.1824 14.2892V14.8065H1.56934V14.3401C1.58156 14.3401 1.59581 14.3157 1.60803 14.3177C1.88502 14.3686 2.00111 14.222 2.10702 13.9796C2.92168 12.114 3.73635 10.2545 4.56528 8.39299C4.58157 8.35429 4.59379 8.31763 4.61823 8.25449ZM7.63047 14.2933C7.41051 13.8045 7.20684 13.3462 7.00317 12.89C6.39624 11.52 5.78524 10.1506 5.17017 8.78199C5.12101 8.69503 5.06152 8.61433 4.99298 8.54166L4.9441 8.57629V14.2933H7.63047ZM4.79135 14.2933V8.42761L4.73432 8.41335L2.12942 14.2912L4.79135 14.2933Z" fill="white"/>
<path d="M19.1823 8.75781C18.6323 8.92535 18.0544 8.9812 17.4825 8.92209C16.9107 8.86298 16.3564 8.6901 15.8523 8.41361C15.1497 8.04905 14.447 7.67837 13.5957 7.79039V7.03885C13.9564 6.97062 14.3291 7.00811 14.669 7.14679C15.2474 7.3749 15.8055 7.64986 16.3819 7.88407C16.7246 8.03115 17.0797 8.14769 17.443 8.23235C17.9725 8.3464 18.3941 8.11626 18.72 7.70484C18.7621 7.64013 18.7834 7.56409 18.7811 7.48692C18.7974 6.99812 19.0621 6.65392 19.4776 6.58874C19.6817 6.55042 19.8927 6.58726 20.0717 6.69247C20.2507 6.79767 20.3856 6.96412 20.4514 7.16105C20.5172 7.35798 20.5095 7.57207 20.4297 7.76376C20.3499 7.95545 20.2034 8.11177 20.0173 8.20383L19.9135 8.26697L20.4206 9.42584C21.0845 10.9289 21.7526 12.43 22.4124 13.9351C22.5204 14.1754 22.5957 14.4381 22.9725 14.2772V14.8068H16.3554V14.3383C16.3554 14.3383 16.3758 14.3139 16.3859 14.3159C16.6731 14.3709 16.777 14.2059 16.8809 13.9697C17.6018 12.3179 18.3391 10.6723 19.0703 9.02462C19.0988 8.94722 19.1354 8.86779 19.1823 8.75781ZM19.5774 8.53785C19.502 8.58877 19.4348 8.6071 19.4165 8.64579C18.5774 10.5216 17.7424 12.3974 16.8992 14.2915H19.5774V8.53785ZM22.4043 14.2976L19.8035 8.40954L19.7485 8.43398V14.2976H22.4043Z" fill="white"/>
<path d="M17.9662 19.3889V19.9999H6.57715V19.3889H17.9662Z" fill="white"/>
<path d="M22.7152 15.0449C22.4484 15.4665 22.202 15.8596 21.9433 16.2669C21.9185 16.29 21.8893 16.3078 21.8575 16.3194C21.8257 16.3309 21.7918 16.3359 21.758 16.3341C20.3581 16.3341 18.9603 16.3341 17.5645 16.3341C17.4855 16.3278 17.4123 16.2905 17.3608 16.2303C17.1083 15.8535 16.87 15.4665 16.6113 15.0551L22.7152 15.0449Z" fill="white"/>
<path d="M7.93334 15.0408C7.6645 15.4644 7.41806 15.8554 7.16144 16.2526C7.11187 16.2992 7.04616 16.3247 6.97814 16.3239C5.57962 16.3239 4.18179 16.3239 2.78463 16.3239C2.74652 16.3239 2.70881 16.3161 2.6738 16.301C2.63879 16.286 2.6072 16.264 2.58097 16.2363C2.32638 15.8534 2.08402 15.4603 1.82129 15.0408H7.93334Z" fill="white"/>
<path d="M8.89648 19.1385V18.7312H15.6175V19.1385H8.89648Z" fill="white"/>
</svg>
