<svg width="32" height="32" viewBox="0 0 32 32" fill="none" xmlns="http://www.w3.org/2000/svg">
<path d="M25.3333 12.6666V11.0666C25.3226 7.32946 25.2068 5.34823 23.956 4.07251C22.5776 2.66663 20.3591 2.66663 15.9222 2.66663L13.4123 2.66663C8.97529 2.66663 6.75679 2.66663 5.3784 4.07251C4 5.4784 4 7.74114 4 12.2666L4 18.4C4 22.9254 4 25.1882 5.3784 26.5941C6.60206 27.8421 8.48781 27.9822 12 27.998" stroke="#21459C" stroke-width="2" stroke-linecap="round"/>
<path d="M24.9002 26.2515L27.9998 29.3333M26.6665 22C26.6665 18.6863 23.9802 16 20.6665 16C17.3528 16 14.6665 18.6863 14.6665 22C14.6665 25.3137 17.3528 28 20.6665 28C23.9802 28 26.6665 25.3137 26.6665 22Z" stroke="#21459C" stroke-width="2" stroke-linecap="round" stroke-linejoin="round"/>
<path d="M9.3335 9.33337H20.0002" stroke="#21459C" stroke-width="2" stroke-linecap="round"/>
<path d="M9.3335 14.6666H13.3335" stroke="#21459C" stroke-width="2" stroke-linecap="round"/>
<ellipse cx="20.5" cy="22" rx="5.5" ry="6" fill="#21459C"/>
</svg>
