<svg width="20" height="20" viewBox="0 0 20 20" fill="none" xmlns="http://www.w3.org/2000/svg">

<path d="M12.5418 8.63008L9.36331 5.27289C9.21673 5.1126 9.13562 4.8979 9.13745 4.67506C9.13929 4.45221 9.22391 4.23904 9.37311 4.08146C9.5223 3.92387 9.72413 3.83449 9.93511 3.83255C10.1461 3.83062 10.3494 3.91628 10.5011 4.0711L15.0532 8.87911C15.1282 8.95786 15.1877 9.05149 15.2283 9.15461C15.2689 9.25773 15.2898 9.36832 15.2898 9.48001C15.2898 9.59169 15.2689 9.70228 15.2283 9.8054C15.1877 9.90852 15.1282 10.0022 15.0532 10.0809L10.5011 14.8889C10.4269 14.9701 10.3381 15.0348 10.2399 15.0794C10.1418 15.1239 10.0362 15.1474 9.92932 15.1483C9.82248 15.1493 9.71652 15.1278 9.61762 15.0851C9.51873 15.0424 9.42889 14.9792 9.35333 14.8994C9.27778 14.8196 9.21803 14.7247 9.17757 14.6203C9.13711 14.5158 9.11675 14.4039 9.11768 14.2911C9.11861 14.1782 9.1408 14.0667 9.18298 13.963C9.22515 13.8593 9.28645 13.7655 9.36331 13.6871L12.5418 10.3299H4.82812C4.6147 10.3299 4.41003 10.2404 4.25912 10.081C4.10822 9.9216 4.02344 9.70542 4.02344 9.48001C4.02344 9.25459 4.10822 9.03841 4.25912 8.87902C4.41003 8.71963 4.6147 8.63008 4.82812 8.63008H12.5418Z" fill="currentColor"/>
</svg>
