<svg width="60" height="60" viewBox="0 0 60 60" fill="none" xmlns="http://www.w3.org/2000/svg">
<path d="M24.4285 24.3563C24.5957 23.9309 24.6591 23.4716 24.6132 23.0167C24.5674 22.5619 24.4137 22.1245 24.1649 21.741C24.1079 21.5956 24.0209 21.4638 23.9096 21.3542C23.7983 21.2447 23.6652 21.1599 23.5189 21.1052C23.3726 21.0506 23.2163 21.0275 23.0605 21.0372C22.9046 21.047 22.7526 21.0896 22.6143 21.1621C21.0327 21.71 19.4407 22.2268 17.8488 22.754C17.7816 22.754 17.7144 22.7851 17.5955 22.8109V22.4077C17.5955 19.4823 17.5594 16.5516 17.5955 13.621C17.6265 11.7757 17.1304 10.22 15.5281 9.0415C15.7245 9.0415 15.8538 9.0415 15.9778 9.0415H40.2705C40.8006 9.02583 41.3282 9.11851 41.8212 9.31388C42.3142 9.50925 42.7623 9.8032 43.1377 10.1777C43.5132 10.5522 43.8083 10.9994 44.0049 11.4919C44.2015 11.9845 44.2957 12.5119 44.2814 13.0421V32.2748C43.7645 32.0835 43.2993 31.9285 42.8496 31.7269C42.7282 31.6643 42.5935 31.6317 42.4568 31.6317C42.3202 31.6317 42.1855 31.6643 42.064 31.7269C40.2576 32.5605 38.27 32.925 36.2853 32.7865C36.033 32.7653 35.7825 32.7255 35.5359 32.6676C35.2155 32.5901 34.9725 32.6676 34.8691 32.9829C34.7348 33.4015 34.4712 33.4997 34.0578 33.4997C29.6437 33.4997 25.2296 33.4997 20.8156 33.4997C20.6967 33.4997 20.5469 33.4636 20.459 33.4997C20.3711 33.5359 20.1333 33.7427 20.1436 33.8564C20.1672 33.9396 20.2073 34.0173 20.2615 34.0848C20.3157 34.1523 20.3828 34.2082 20.459 34.2492C20.6097 34.2948 20.7687 34.3054 20.9241 34.2802H34.2748L33.8302 35.7585H20.8001C20.6915 35.7585 20.5572 35.7223 20.4797 35.7585C20.4022 35.7946 20.154 35.9756 20.1436 36.0996C20.1333 36.2236 20.2832 36.4097 20.4073 36.4976C20.5418 36.5508 20.6882 36.5669 20.8311 36.5441H33.6546C33.0292 41.0512 33.8044 45.119 37.2416 48.4321H17.5541V40.6067C17.5541 40.4775 17.5852 40.3121 17.5232 40.219C17.4612 40.126 17.2596 39.9348 17.1304 39.9451C17.0012 39.9554 16.8771 40.1415 16.7892 40.2759C16.7013 40.4103 16.7892 40.4671 16.7892 40.5602C16.7892 42.2917 16.7892 44.018 16.7892 45.7289V46.163L12.9903 45.6462V36.9886C13.4451 36.9886 13.8896 36.9886 14.3289 36.9886C14.6132 36.9886 14.8458 36.9369 14.8923 36.6165C14.9389 36.296 14.6959 36.1926 14.3341 36.1875C13.9723 36.1823 13.4657 36.1875 13.0264 36.1875C12.9269 36.1927 12.8277 36.1732 12.7375 36.1309C12.6474 36.0885 12.569 36.0245 12.5095 35.9445C11.4512 34.6317 10.7277 33.0814 10.4008 31.4271C9.8627 29.1371 9.89461 26.75 10.4938 24.4752C10.7611 23.4278 11.279 22.461 12.003 21.6583C13.2952 20.2731 14.9233 19.9268 16.7892 20.1542V20.5832C16.7892 21.312 16.7892 22.0356 16.7892 22.7592C16.7966 22.7999 16.7953 22.8417 16.7854 22.8818C16.7756 22.922 16.7574 22.9596 16.732 22.9923C16.7067 23.025 16.6747 23.0519 16.6383 23.0714C16.6018 23.0909 16.5617 23.1025 16.5204 23.1055L14.5616 23.6224C14.1946 23.7154 14.0447 23.8963 14.1274 24.1393C14.2101 24.3822 14.4892 24.4339 14.7528 24.3667C17.5102 23.7202 20.2212 22.8896 22.8675 21.8805C23.1311 21.772 23.3121 21.8133 23.4154 22.0873L23.4517 22.1493C24.1236 23.4828 23.8496 24.2891 22.5006 24.9301L17.9573 27.0854C17.487 27.3077 17.4405 27.4059 17.6111 27.9021C17.9384 28.8261 18.0653 29.8093 17.9832 30.7862C17.9372 31.4853 17.6677 32.151 17.2144 32.6852C16.7612 33.2194 16.1483 33.5938 15.4661 33.753C15.3369 33.7944 15.2077 33.815 15.0785 33.8512C14.851 33.9236 14.6856 34.0631 14.7424 34.3267C14.7516 34.383 14.7732 34.4366 14.8058 34.4834C14.8383 34.5302 14.881 34.5692 14.9306 34.5975C14.9801 34.6257 15.0353 34.6425 15.0922 34.6466C15.1491 34.6508 15.2062 34.6421 15.2593 34.6214C15.6521 34.5077 16.0346 34.3629 16.4171 34.2234C16.5204 34.1872 16.6134 34.1355 16.7788 34.058V34.5077C16.7788 35.3553 16.7788 36.1978 16.7788 37.0455C16.7788 37.3298 16.7788 37.5985 17.1561 37.6244C17.4301 37.6244 17.5593 37.4486 17.5593 37.0248C17.5593 35.9497 17.5593 34.8746 17.5593 33.7995C17.57 33.6102 17.6407 33.4292 17.761 33.2827C18.1598 32.8092 18.4573 32.259 18.6351 31.666C18.8129 31.0731 18.8672 30.4499 18.7947 29.8351C18.743 29.1529 18.5879 28.4809 18.469 27.7677C19.1099 27.4575 19.818 27.1319 20.5365 26.7856C21.5702 26.2688 22.6039 25.7519 23.6377 25.235C23.7729 25.1845 23.9178 25.165 24.0615 25.1781H41.361C41.6039 25.1781 41.7797 25.0128 41.7435 24.7957C41.7073 24.5786 41.5471 24.4959 41.4024 24.3977C41.2577 24.2995 41.1698 24.3977 41.0458 24.3977H24.4078L24.4285 24.3563ZM22.2008 41.2218C21.839 41.7748 21.4824 42.3072 21.1413 42.8447C20.9862 43.0877 20.95 43.3358 21.2395 43.5012C21.5289 43.6666 21.6787 43.4702 21.8235 43.2479C22.0991 42.7802 22.4028 42.3297 22.7331 41.8989C23.0887 41.4743 23.491 41.0911 23.9323 40.7566C24.3768 40.4361 24.7438 40.5602 25.0074 41.046C25.147 41.2941 25.2193 41.5629 25.3382 41.8472C25.4409 42.1262 25.6489 42.3538 25.9175 42.4814C26.1861 42.6089 26.4939 42.6262 26.7751 42.5295C26.9548 42.4807 27.1282 42.4113 27.2919 42.3227C28.5893 41.6456 29.5661 40.5705 30.6205 39.604C30.6613 39.5323 30.6827 39.4513 30.6827 39.3688C30.6827 39.2863 30.6613 39.2053 30.6205 39.1336C30.5459 39.0823 30.4604 39.0491 30.3707 39.0365C30.281 39.0239 30.1895 39.0324 30.1037 39.0613C29.9248 39.1612 29.7641 39.2905 29.6282 39.4437C29.1113 39.9038 28.6255 40.3948 28.0776 40.8186C27.6501 41.1516 27.1914 41.4424 26.7079 41.687C26.2944 41.8937 26.1238 41.7852 25.9687 41.3613C25.9067 41.2011 25.8603 41.0409 25.7931 40.8858C25.7167 40.6424 25.5813 40.4216 25.3991 40.243C25.2169 40.0644 24.9935 39.9335 24.7486 39.8619C24.5037 39.7904 24.245 39.7803 23.9953 39.8327C23.7456 39.8851 23.5127 39.9983 23.3173 40.1622C23.2263 40.2424 23.1276 40.3134 23.0226 40.3741C22.8912 40.4273 22.7509 40.4554 22.6091 40.4568C22.1229 40.4053 21.6327 40.4053 21.1465 40.4568C20.4362 40.6133 19.8154 41.0418 19.4173 41.6505C19.0192 42.2592 18.8755 42.9996 19.0169 43.7131C19.1589 44.4393 19.5785 45.0816 20.1865 45.5034C20.7946 45.9252 21.5432 46.0932 22.2732 45.9718C22.7041 45.8965 23.1114 45.7214 23.4626 45.4607C23.8139 45.1999 24.0993 44.8607 24.2961 44.47C24.4929 44.0794 24.5958 43.6481 24.5963 43.2107C24.5969 42.7732 24.4951 42.3417 24.2993 41.9506L23.6273 42.2348C23.9788 43.5632 23.7049 44.4315 22.8004 44.9484C22.4113 45.1721 21.9591 45.2606 21.5144 45.2002C21.0697 45.1397 20.6576 44.9337 20.3424 44.6143C20.0271 44.2949 19.8265 43.8801 19.7719 43.4347C19.7173 42.9892 19.8116 42.5383 20.0403 42.1521C20.2486 41.7816 20.5728 41.4898 20.9632 41.3217C21.3536 41.1536 21.7885 41.1185 22.2008 41.2218ZM30.9566 20.6142H41.1491C41.2473 20.6142 41.3714 20.6142 41.4334 20.6142C41.4955 20.6142 41.7693 20.3661 41.759 20.2576C41.7487 20.149 41.573 19.9474 41.4283 19.8647C41.2776 19.8191 41.1184 19.8085 40.963 19.8337H20.8725C20.7485 19.8337 20.6036 19.7975 20.5158 19.8337C20.4279 19.8699 20.1902 20.0818 20.2006 20.1955C20.2109 20.3092 20.3814 20.4901 20.5209 20.5883C20.6605 20.6866 20.7536 20.5883 20.8777 20.5883L30.9566 20.6142ZM30.9978 18.3348H41.0767C41.1852 18.3348 41.3197 18.3762 41.3972 18.3348C41.4748 18.2935 41.7487 18.1022 41.7538 17.9782C41.759 17.8541 41.5782 17.6784 41.4386 17.5698C41.2991 17.4613 41.2318 17.5698 41.1233 17.5698H20.8259C20.6916 17.5698 20.5262 17.5698 20.4435 17.6215C20.3771 17.6711 20.3216 17.7339 20.2807 17.8059C20.2398 17.878 20.2143 17.9578 20.2057 18.0402C20.2057 18.1539 20.3969 18.278 20.5261 18.3555C20.6553 18.433 20.7381 18.3555 20.8466 18.3555L30.9978 18.3348ZM30.9566 29.7059H41.1026C41.2111 29.7059 41.3507 29.7369 41.4231 29.7059C41.4955 29.6749 41.7435 29.4578 41.7642 29.3079C41.7849 29.1581 41.6298 28.9358 41.3817 28.9255H20.8311C20.7329 28.9255 20.614 28.8944 20.5416 28.9255C20.4693 28.9565 20.2006 29.1477 20.2057 29.2614C20.223 29.3473 20.2569 29.4289 20.3057 29.5016C20.3544 29.5743 20.4171 29.6367 20.49 29.6852C20.5779 29.7473 20.7485 29.7111 20.8777 29.7111L30.9566 29.7059ZM30.9566 14.9441H24.9402C24.4233 14.9441 24.1804 15.0682 24.1959 15.3576C24.2114 15.6471 24.4233 15.7453 24.935 15.7453H37.0813C37.2124 15.7622 37.3456 15.7462 37.469 15.6988C37.5334 15.6642 37.5898 15.6164 37.6343 15.5585C37.6788 15.5006 37.7105 15.4339 37.7274 15.3628C37.7117 15.2859 37.6807 15.2128 37.6363 15.148C37.5919 15.0833 37.535 15.028 37.469 14.9855C37.376 14.9183 37.2157 14.9441 37.0865 14.9441H30.9566ZM35.0915 27.4265H41.0767C41.2059 27.4265 41.3713 27.4524 41.4644 27.3903C41.6117 27.3059 41.7195 27.1665 41.7642 27.0027C41.7642 26.8942 41.5936 26.7443 41.4695 26.6564C41.3671 26.619 41.2569 26.6083 41.1491 26.6254H29.1888C29.0924 26.6202 28.9959 26.6202 28.8994 26.6254C28.6617 26.6512 28.5066 26.7701 28.5066 27.0182C28.5037 27.0701 28.5116 27.1221 28.53 27.1707C28.5483 27.2194 28.5767 27.2636 28.6133 27.3006C28.6498 27.3376 28.6937 27.3666 28.7421 27.3856C28.7905 27.4046 28.8423 27.4133 28.8943 27.411C29.0028 27.411 29.1113 27.411 29.2198 27.411L35.0915 27.4265ZM35.169 22.0873H29.1475C29.0493 22.0873 28.9253 22.0511 28.8632 22.0873C28.8012 22.1235 28.5427 22.3095 28.5324 22.4336C28.522 22.5576 28.6719 22.7385 28.796 22.8419C28.92 22.9453 29.0287 22.8729 29.1475 22.8729H41.1181C41.247 22.8919 41.3787 22.8777 41.5006 22.8316C41.6246 22.7437 41.7797 22.568 41.759 22.4543C41.7383 22.3405 41.5678 22.1803 41.4334 22.0924C41.2991 22.0046 41.2215 22.0924 41.1129 22.0924L35.169 22.0873ZM25.7724 31.1583H20.8363C20.7277 31.1583 20.5881 31.1222 20.5209 31.1583C20.4538 31.1945 20.2006 31.4219 20.2006 31.5563C20.2006 31.6907 20.4124 31.8199 20.552 31.9285C20.6037 31.9698 20.7122 31.9285 20.8001 31.9285H30.7342C30.8221 31.9285 30.9306 31.9595 30.9823 31.9285C31.1219 31.8251 31.3132 31.6959 31.339 31.5563C31.3649 31.4168 31.184 31.2669 31.0547 31.1635C30.9255 31.0601 30.8479 31.1377 30.7394 31.1377L25.7724 31.1583ZM31.3597 42.178C31.3597 41.8213 31.1322 41.5991 30.879 41.6611C29.8659 42.0057 28.8581 42.3709 27.8554 42.7569C27.803 42.7706 27.7546 42.7964 27.714 42.8323C27.6735 42.8681 27.6418 42.913 27.6217 42.9632C27.6016 43.0135 27.5935 43.0677 27.5982 43.1217C27.6029 43.1756 27.6201 43.2277 27.6485 43.2737C27.6645 43.3247 27.6915 43.3715 27.7274 43.411C27.7633 43.4504 27.8074 43.4816 27.8566 43.5023C27.9058 43.5229 27.959 43.5326 28.0123 43.5306C28.0657 43.5287 28.1179 43.5151 28.1654 43.4908C29.1371 43.1445 30.1141 42.7982 31.0858 42.4312C31.2047 42.4106 31.2977 42.2503 31.3597 42.1935V42.178Z" fill="#21459C"/>
<path d="M34.2695 39.1749C34.2781 37.3082 34.6686 35.4631 35.417 33.7529C35.51 33.5462 35.6134 33.4583 35.8512 33.4945C38.0182 33.7509 40.2143 33.4189 42.2086 32.5331C42.2984 32.4911 42.3963 32.4694 42.4955 32.4694C42.5946 32.4694 42.6925 32.4911 42.7823 32.5331C44.6127 33.3349 46.6077 33.6892 48.6022 33.5669H48.8193C49.4705 33.4893 49.4912 33.479 49.7186 34.0837C51.2072 38.0223 51.1607 41.8885 49.0157 45.5841C47.6047 48.0185 45.3666 49.3779 42.6738 50.0343C42.5443 50.0624 42.4104 50.0624 42.281 50.0343C37.9961 48.9489 35.4739 46.1836 34.5538 41.8988C34.4851 41.594 34.4367 41.2849 34.4091 40.9736C34.3522 40.3534 34.316 39.7641 34.2695 39.1749ZM35.6495 40.1363C35.7064 40.5704 35.7426 41.17 35.8563 41.7179C36.5748 45.2791 38.6474 47.574 42.1983 48.4734C42.3687 48.5091 42.5447 48.5091 42.7152 48.4734C43.9538 48.2214 45.1149 47.6791 46.1033 46.8911C47.0917 46.1031 47.8791 45.0918 48.4007 43.9404C49.2049 42.1606 49.4845 40.1882 49.2069 38.2549C49.0791 37.1253 48.75 36.0277 48.2353 35.0141C48.1215 34.7918 47.9975 34.6265 47.7184 34.6781C46.0509 34.9598 44.3372 34.7235 42.8082 34.001C42.696 33.9474 42.5732 33.9195 42.4489 33.9195C42.3246 33.9195 42.2018 33.9474 42.0897 34.001C40.6141 34.6932 38.9661 34.9307 37.3552 34.6833C37.212 34.6409 37.0579 34.6561 36.9257 34.7256C36.7934 34.7951 36.6935 34.9134 36.6472 35.0555C35.9216 36.6477 35.5799 38.3879 35.6495 40.1363Z" fill="#21459C"/>
<path d="M16.8356 16.7221H9V15.7762C9 14.7735 9 13.7708 9 12.7681C9.03127 11.825 9.40361 10.9252 10.048 10.2359C10.6924 9.54652 11.565 9.11439 12.5039 9.01969C13.4427 8.92498 14.384 9.17413 15.153 9.72089C15.9221 10.2677 16.4667 11.0749 16.6857 11.9928C16.7727 12.3935 16.816 12.8025 16.8149 13.2126C16.846 14.3704 16.8356 15.5281 16.8356 16.7221Z" fill="#21459C"/>
<path d="M48.556 39.8055C48.5882 41.8302 47.9014 43.8008 46.6178 45.367C45.5799 46.5447 44.1926 47.3596 42.6586 47.6929C42.5294 47.7178 42.3958 47.7089 42.271 47.6671C39.1698 46.8607 37.3245 44.8398 36.6681 41.7386C36.2316 39.7538 36.4287 37.6821 37.2316 35.8152C37.2936 35.6654 37.3245 35.5 37.5726 35.5361C39.1561 35.7107 40.7578 35.4758 42.2244 34.8539C42.392 34.7968 42.5737 34.7968 42.7413 34.8539C44.2162 35.4785 45.8275 35.7117 47.419 35.531C47.6464 35.4999 47.6774 35.6447 47.7343 35.7842C48.2799 37.0545 48.5595 38.423 48.556 39.8055ZM42.4726 43.6148L42.3072 43.4029C41.7903 42.7258 41.2735 42.0487 40.7877 41.3716C40.5654 41.077 40.3225 41.0304 40.1209 41.232C39.9193 41.4336 40.0019 41.6455 40.1518 41.8471L42.0384 44.3746C42.4209 44.8915 42.6432 44.8915 42.9688 44.3229C44.0025 42.569 45.0482 40.8168 46.1061 39.0663C46.1578 38.9836 46.2457 38.8906 46.2353 38.8131C46.2333 38.6487 46.175 38.49 46.07 38.3634C45.9821 38.2962 45.7547 38.3634 45.6255 38.4099C45.4962 38.4564 45.4653 38.6115 45.3981 38.7252L42.4726 43.6148Z" fill="#21459C"/>
</svg>
