<svg width="24" height="24" viewBox="0 0 24 24" fill="none" xmlns="http://www.w3.org/2000/svg">
<g clip-path="url(#clip0_266_10764)">
<rect width="24" height="24" fill="white"/>
<path fill-rule="evenodd" clip-rule="evenodd" d="M6.40019 0H28.8002V1.6H6.40019V0ZM6.40019 3.2H28.8002V4.8H6.40019V3.2ZM6.40019 6.4H28.8002V8H6.40019V6.4ZM6.40019 9.6H28.8002V11.2H6.40019V9.6ZM-4.7998 12.8H28.8002V14.4H-4.7998V12.8ZM-4.7998 16H28.8002V17.6H-4.7998V16ZM-4.7998 19.2H28.8002V20.8H-4.7998V19.2Z" fill="#F93939"/>
<path d="M28.8002 22.4H-4.7998V24H28.8002V22.4Z" fill="#F93939"/>
<path fill-rule="evenodd" clip-rule="evenodd" d="M0 0H11.2V11.2H0V0Z" fill="#1A47B8"/>
<path fill-rule="evenodd" clip-rule="evenodd" d="M5.5041 7.83538L3.0913 9.10418L3.5521 6.41618L1.6001 4.51698L4.2977 4.12498L5.5041 1.68018L6.7105 4.12338L9.4081 4.51538L7.4561 6.41938L7.9169 9.10418" fill="white"/>
</g>
<defs>
<clipPath id="clip0_266_10764">
<rect width="24" height="24" fill="white"/>
</clipPath>
</defs>
</svg>
